<svg width="500" height="565" viewBox="0 0 500 565" fill="none" xmlns="http://www.w3.org/2000/svg">
<path fill-rule="evenodd" clip-rule="evenodd" d="M441.213 415.507C440.877 418.227 440.374 420.923 439.704 423.579C437.49 432.65 434.308 441.456 430.214 449.847C427.483 455.883 424.812 460.862 420.98 468.209L416.167 477.564C409.317 490.675 402.829 503.017 395.828 516.174L393.52 520.474C391.664 523.929 389.431 528.018 387.666 531.322C385.704 534.853 384.211 537.523 383.984 537.795C385.222 535.23 388.239 529.195 391.257 523.356C396.281 513.549 403.327 500 408.336 490.57C412.138 483.328 416.001 476.01 419.697 468.979C423.394 461.948 427.241 454.796 430.515 447.735C432.916 442.732 435.061 437.611 436.943 432.391C438.886 426.907 440.315 421.255 441.213 415.507Z" fill="black"/>
<path fill-rule="evenodd" clip-rule="evenodd" d="M433.609 435.77C433.587 435.413 433.587 435.056 433.609 434.699C433.529 433.479 433.264 432.278 432.824 431.138C432.628 430.761 432.462 430.399 432.251 430.052C432.036 429.659 431.68 429.362 431.255 429.222C431.056 429.191 430.852 429.216 430.666 429.293C430.479 429.37 430.318 429.497 430.199 429.66C429.903 429.982 429.681 430.365 429.548 430.782C429.415 431.199 429.375 431.639 429.429 432.074C429.616 432.949 430.108 433.73 430.817 434.276L431.315 434.639C431.759 434.914 432.218 435.165 432.688 435.393C433.003 435.521 433.282 435.723 433.503 435.981C432.786 435.869 432.093 435.64 431.451 435.302C430.673 434.937 429.998 434.382 429.49 433.688C428.957 432.975 428.73 432.079 428.856 431.198C428.961 430.619 429.198 430.072 429.55 429.599C429.714 429.324 429.949 429.099 430.23 428.948C430.512 428.796 430.83 428.724 431.149 428.739C431.466 428.784 431.768 428.903 432.03 429.087C432.292 429.27 432.507 429.513 432.658 429.795C432.939 430.272 433.167 430.778 433.337 431.304C433.57 432.018 433.712 432.758 433.759 433.507C433.834 434.264 433.783 435.029 433.609 435.77Z" fill="black"/>
<path fill-rule="evenodd" clip-rule="evenodd" d="M438.18 432.859C438.482 433.1 438.889 432.964 439.236 432.859C440.378 432.497 441.468 431.99 442.48 431.35C443.099 430.792 443.823 430.46 444.245 429.554C444.316 429.368 444.343 429.168 444.325 428.969C444.307 428.77 444.243 428.578 444.14 428.408C443.702 427.744 442.631 427.985 441.922 428.408C441.125 428.799 440.44 429.386 439.93 430.113C439.808 430.27 439.697 430.437 439.598 430.611C439.355 431.048 439.168 431.515 439.04 431.999C438.967 432.315 438.85 432.62 438.693 432.904C438.62 432.613 438.595 432.313 438.618 432.014C438.672 431.596 438.773 431.186 438.919 430.792C439.222 430.004 439.702 429.296 440.322 428.725C440.944 428.144 441.702 427.729 442.525 427.518C442.827 427.423 443.147 427.401 443.459 427.453C443.771 427.505 444.067 427.631 444.321 427.819C444.554 428.045 444.719 428.331 444.797 428.646C444.874 428.961 444.861 429.292 444.758 429.6C444.3 430.618 443.506 431.449 442.51 431.953C441.864 432.311 441.174 432.585 440.458 432.768C440.088 432.882 439.71 432.968 439.327 433.025C439.131 433.025 438.95 433.025 438.753 433.025C438.652 433.051 438.545 433.049 438.444 433.02C438.343 432.991 438.252 432.935 438.18 432.859Z" fill="black"/>
<path fill-rule="evenodd" clip-rule="evenodd" d="M440.745 414.27C440.819 413.906 440.875 413.539 440.911 413.169C440.932 412.544 440.82 411.921 440.58 411.343C440.341 410.766 439.98 410.246 439.523 409.819C439.174 409.535 438.77 409.324 438.337 409.199C437.904 409.075 437.45 409.039 437.003 409.095C436.56 409.186 436.152 409.401 435.826 409.714C435.473 409.997 435.213 410.38 435.081 410.814C434.949 411.247 434.951 411.711 435.087 412.143C435.465 413.013 436.102 413.746 436.913 414.24L437.456 414.557C437.929 414.813 438.437 414.996 438.965 415.1C439.478 415.236 439.885 415.311 439.93 415.417C439.187 415.515 438.431 415.411 437.742 415.115C436.925 414.803 436.184 414.319 435.57 413.697C435.239 413.395 434.975 413.026 434.796 412.615C434.617 412.205 434.526 411.761 434.529 411.313C434.588 410.708 434.836 410.137 435.236 409.68C435.636 409.222 436.17 408.902 436.762 408.763C437.334 408.659 437.922 408.698 438.475 408.877C439.028 409.056 439.528 409.369 439.93 409.789C440.467 410.379 440.819 411.113 440.941 411.901C441.067 412.695 440.999 413.508 440.745 414.27Z" fill="black"/>
<path fill-rule="evenodd" clip-rule="evenodd" d="M440.911 414.134C441.119 414.149 441.324 414.2 441.514 414.285C441.862 414.382 442.189 414.541 442.48 414.753C442.633 414.878 442.75 415.042 442.819 415.228C442.888 415.413 442.906 415.614 442.872 415.809C442.872 416.397 442.39 416.744 441.801 417.046C441.546 417.195 441.264 417.292 440.971 417.333C440.652 417.382 440.326 417.345 440.026 417.225C439.727 417.106 439.464 416.909 439.266 416.654C439.062 416.392 438.942 416.074 438.923 415.743C438.904 415.411 438.987 415.081 439.161 414.798C439.272 414.689 439.399 414.597 439.538 414.527C439.816 414.329 440.136 414.199 440.473 414.149C440.669 414.085 440.881 414.085 441.077 414.149C440.7 414.286 440.332 414.447 439.975 414.632C439.801 414.731 439.662 414.881 439.576 415.062C439.489 415.243 439.46 415.445 439.493 415.643C439.521 415.831 439.589 416.011 439.69 416.172C439.791 416.333 439.924 416.471 440.081 416.578C440.317 416.689 440.575 416.746 440.835 416.746C441.096 416.746 441.354 416.689 441.59 416.578C442.088 416.382 442.54 415.975 442.556 415.583C442.567 415.41 442.536 415.237 442.465 415.079C442.394 414.921 442.285 414.783 442.148 414.677C441.773 414.421 441.353 414.237 440.911 414.134Z" fill="black"/>
<path fill-rule="evenodd" clip-rule="evenodd" d="M442.239 416.141C442.576 416.038 442.919 415.952 443.265 415.884C444.374 415.458 445.396 414.835 446.282 414.044C446.914 413.503 447.375 412.79 447.61 411.992C447.625 411.8 447.593 411.608 447.517 411.432C447.441 411.256 447.322 411.101 447.173 410.981C446.829 410.743 446.434 410.589 446.02 410.531C445.606 410.473 445.184 410.514 444.789 410.649C443.927 410.841 443.115 411.211 442.405 411.735L441.937 412.112C441.573 412.411 441.289 412.795 441.107 413.229C440.995 413.506 440.953 413.807 440.987 414.104C440.874 413.994 440.79 413.858 440.74 413.709C440.69 413.559 440.676 413.4 440.7 413.244C440.766 412.804 440.954 412.391 441.243 412.052C441.781 411.421 442.444 410.907 443.189 410.543C443.927 410.182 444.725 409.962 445.543 409.894C446.141 409.846 446.74 409.978 447.263 410.272C447.539 410.434 447.767 410.666 447.926 410.944C448.085 411.222 448.168 411.536 448.168 411.856C448.124 412.446 447.892 413.007 447.505 413.455C447.17 413.863 446.79 414.233 446.373 414.557C445.788 414.998 445.143 415.354 444.457 415.613C443.744 415.887 442.998 416.064 442.239 416.141Z" fill="black"/>
<path fill-rule="evenodd" clip-rule="evenodd" d="M441.997 416.156C441.979 416.464 441.902 416.767 441.771 417.046C441.453 418.087 440.814 419.001 439.945 419.656C439.33 420.199 438.569 420.55 437.758 420.667C437.336 420.765 436.897 420.765 436.475 420.667C436.243 420.6 436.027 420.487 435.84 420.334C435.654 420.181 435.5 419.991 435.389 419.777C435.188 419.363 435.085 418.909 435.087 418.449C435.092 417.993 435.19 417.543 435.374 417.125C435.558 416.708 435.825 416.332 436.158 416.02C436.307 415.884 436.469 415.763 436.641 415.658C437.097 415.379 437.616 415.218 438.15 415.19C438.305 415.171 438.463 415.187 438.612 415.237C438.761 415.286 438.897 415.368 439.01 415.477C438.427 415.535 437.857 415.682 437.32 415.915C436.744 416.203 436.282 416.677 436.008 417.26C435.735 417.843 435.665 418.501 435.811 419.128C435.92 419.499 436.168 419.813 436.502 420.007C436.836 420.2 437.231 420.259 437.607 420.169C438.441 420.054 439.228 419.715 439.885 419.189C440.381 418.843 440.819 418.42 441.183 417.936C441.565 417.4 441.841 416.796 441.997 416.156Z" fill="black"/>
<path fill-rule="evenodd" clip-rule="evenodd" d="M442.239 415.719C442.543 415.658 442.855 415.658 443.159 415.719C443.694 415.697 444.227 415.793 444.72 416.002C445.214 416.211 445.654 416.526 446.011 416.926C446.295 417.217 446.514 417.565 446.652 417.948C446.79 418.331 446.844 418.738 446.81 419.144C446.801 419.583 446.671 420.011 446.433 420.381C446.174 420.775 445.807 421.086 445.377 421.279C444.947 421.471 444.47 421.536 444.004 421.467C443.56 421.342 443.147 421.124 442.793 420.828C442.44 420.531 442.153 420.163 441.952 419.747C441.877 419.581 441.786 419.415 441.711 419.219C441.527 418.767 441.42 418.288 441.394 417.801C441.394 417.318 441.545 416.971 441.65 416.941C441.764 417.515 441.92 418.08 442.118 418.631C442.358 419.229 442.724 419.769 443.189 420.215C443.382 420.414 443.619 420.564 443.882 420.65C444.145 420.737 444.425 420.759 444.698 420.713C445.068 420.634 445.408 420.449 445.676 420.182C445.943 419.914 446.128 419.574 446.207 419.204C446.262 418.821 446.233 418.431 446.121 418.061C446.009 417.691 445.817 417.349 445.558 417.062C445.154 416.6 444.641 416.247 444.064 416.036C443.481 415.816 442.862 415.709 442.239 415.719Z" fill="black"/>
<path fill-rule="evenodd" clip-rule="evenodd" d="M73.7161 392.091L71.9659 401.792C70.1549 412.842 69.0312 423.993 68.6013 435.182C68.3495 443.388 68.6115 451.602 69.3859 459.775C69.7781 464.06 70.5024 468.24 71.1964 472.268C72.7502 480.808 75.2815 489.141 78.7404 497.103C82.2655 505.084 86.625 512.671 91.7462 519.735C92.8627 521.244 93.9792 522.752 95.2918 524.382C98.355 528.226 101.64 531.889 105.129 535.351C108.539 538.806 111.3 541.205 111.542 541.582C110.244 540.481 107.951 538.715 105.506 536.316C102.723 533.727 100.075 530.998 97.5701 528.139C87.672 516.995 79.9907 504.064 74.9382 490.042C71.6663 480.784 69.5629 471.154 68.6767 461.375C67.7099 451.851 67.4829 442.266 67.9978 432.708C68.3599 425.858 69.1143 419.279 70.0195 412.761C71.0757 405.776 72.328 398.911 73.7161 392.091Z" fill="black"/>
<path fill-rule="evenodd" clip-rule="evenodd" d="M67.5753 413.018C67.4692 412.625 67.3836 412.227 67.3188 411.826C66.9181 410.509 66.3768 409.24 65.7044 408.039L64.9198 406.862C64.6437 406.421 64.3029 406.025 63.9089 405.685C63.8349 405.612 63.7456 405.556 63.6475 405.521C63.5493 405.486 63.4446 405.473 63.3409 405.483C63.2372 405.493 63.137 405.526 63.0474 405.579C62.9578 405.632 62.881 405.704 62.8226 405.791C62.5984 406.222 62.519 406.714 62.5962 407.194C62.6553 407.69 62.7928 408.174 63.0036 408.627C63.4534 409.557 64.1149 410.368 64.9349 410.996L65.478 411.419C65.9458 411.766 66.5342 412.097 66.9868 412.399C67.4395 412.701 67.8016 413.093 67.8016 413.214C67.0148 413 66.2665 412.664 65.5836 412.218C64.7605 411.744 64.0171 411.143 63.3808 410.438C62.7414 409.712 62.2861 408.842 62.0531 407.903C61.8877 407.249 61.8877 406.565 62.0531 405.911C62.1152 405.719 62.2153 405.541 62.3475 405.388C62.4796 405.235 62.6412 405.111 62.8226 405.021C63.0124 404.946 63.2178 404.919 63.4205 404.943C63.6232 404.967 63.8169 405.04 63.9843 405.157C64.4979 405.544 64.9331 406.025 65.2668 406.575C65.6012 407.061 65.9085 407.565 66.1872 408.084C66.5582 408.833 66.8563 409.616 67.0774 410.423C67.3563 411.262 67.5237 412.135 67.5753 413.018Z" fill="black"/>
<path fill-rule="evenodd" clip-rule="evenodd" d="M70.8947 421.075C71.2369 420.975 71.5845 420.894 71.9357 420.833C73.0777 420.429 74.1589 419.871 75.1495 419.173C75.8456 418.653 76.4608 418.033 76.9751 417.333C77.0872 417.166 77.1649 416.979 77.2038 416.782C77.2427 416.585 77.2418 416.383 77.2014 416.186C77.0958 415.854 76.6884 415.824 76.281 415.945C75.862 416.098 75.4579 416.29 75.074 416.518C74.2939 416.985 73.5914 417.57 72.9919 418.253L72.6147 418.736C72.3121 419.145 72.0446 419.579 71.815 420.033C71.674 420.306 71.5676 420.595 71.4982 420.894C71.3891 420.767 71.3172 420.612 71.2906 420.447C71.2639 420.282 71.2836 420.113 71.3473 419.958C71.4707 419.551 71.6429 419.161 71.8603 418.796C72.2849 418.065 72.8249 417.408 73.4596 416.85C74.0858 416.302 74.7999 415.863 75.5719 415.552C75.8524 415.377 76.1766 415.284 76.5074 415.284C76.8382 415.284 77.1623 415.377 77.4428 415.552C77.583 415.68 77.6884 415.841 77.7491 416.02C77.8098 416.2 77.8238 416.392 77.7898 416.578C77.7517 416.881 77.6543 417.173 77.5032 417.438C76.9148 418.363 76.1193 419.138 75.1796 419.702C74.542 420.087 73.864 420.4 73.1578 420.637C72.4252 420.879 71.6646 421.026 70.8947 421.075Z" fill="black"/>
<path fill-rule="evenodd" clip-rule="evenodd" d="M73.7763 391.14C73.6824 390.869 73.6364 390.583 73.6406 390.295C73.5709 389.795 73.6237 389.285 73.7945 388.809C73.9653 388.333 74.249 387.906 74.6213 387.564C74.8936 387.3 75.2228 387.101 75.5837 386.984C75.9445 386.866 76.3275 386.832 76.7034 386.885C77.104 386.937 77.4839 387.093 77.8048 387.338C78.1449 387.597 78.3969 387.955 78.5265 388.363C78.6561 388.771 78.657 389.208 78.529 389.616C78.2306 390.372 77.703 391.016 77.0202 391.457C76.866 391.555 76.7046 391.64 76.5374 391.714C76.1274 391.913 75.6901 392.05 75.2399 392.121C74.8023 392.121 74.4704 392.121 74.4251 391.985C74.9747 391.878 75.5146 391.727 76.0395 391.533C76.6078 391.264 77.1199 390.891 77.5483 390.431C77.9621 390.035 78.2056 389.494 78.2273 388.922C78.1756 388.547 78.013 388.196 77.7603 387.913C77.5076 387.631 77.1764 387.431 76.809 387.338C76.433 387.268 76.0456 387.29 75.6801 387.403C75.3147 387.516 74.9823 387.716 74.7118 387.987C74.3034 388.369 74.0151 388.862 73.882 389.405C73.7273 389.97 73.6913 390.561 73.7763 391.14Z" fill="black"/>
<path fill-rule="evenodd" clip-rule="evenodd" d="M73.5803 390.99C73.4307 391.058 73.2738 391.108 73.1126 391.14C72.8575 391.22 72.6341 391.378 72.4742 391.592C72.3143 391.806 72.2262 392.065 72.2224 392.332C72.3876 392.67 72.6727 392.933 73.022 393.072C73.2017 393.132 73.3911 393.157 73.5803 393.147C73.7577 393.161 73.9357 393.131 74.0988 393.06C74.2619 392.989 74.4051 392.879 74.5157 392.74C74.6261 392.61 74.6963 392.451 74.7177 392.282C74.7392 392.114 74.7109 391.942 74.6364 391.789C74.6012 391.722 74.5553 391.661 74.5007 391.608C74.3282 391.468 74.1347 391.356 73.9273 391.276C73.7161 391.186 73.535 391.08 73.535 391.02C73.8761 390.971 74.2239 391.029 74.5308 391.186C74.7449 391.274 74.9272 391.425 75.0538 391.619C75.1804 391.813 75.2453 392.041 75.24 392.272C75.2336 392.502 75.1745 392.728 75.0673 392.932C74.96 393.136 74.8075 393.313 74.6214 393.449C74.3678 393.612 74.0774 393.708 73.7768 393.729C73.4762 393.75 73.1751 393.695 72.9013 393.57C72.6046 393.484 72.3413 393.309 72.147 393.069C71.9527 392.829 71.8368 392.535 71.815 392.227C71.8393 392.016 71.9173 391.816 72.0415 391.644C72.1656 391.472 72.3318 391.335 72.5241 391.246C72.8553 391.09 73.2146 391.003 73.5803 390.99Z" fill="black"/>
<path fill-rule="evenodd" clip-rule="evenodd" d="M72.5694 392.544C72.2949 392.538 72.0239 392.482 71.7698 392.378C70.8472 392.178 69.9905 391.747 69.2803 391.125C68.669 390.728 68.232 390.113 68.0581 389.405C68.0208 389.2 68.0329 388.99 68.0932 388.79C68.1535 388.591 68.2605 388.409 68.4052 388.259C68.7168 387.999 69.088 387.82 69.4855 387.739C69.883 387.657 70.2946 387.675 70.6834 387.791C71.447 387.94 72.1652 388.266 72.7807 388.742C72.9187 388.843 73.0498 388.954 73.1729 389.073C73.5174 389.381 73.7595 389.786 73.867 390.235C73.867 390.763 73.5803 391.035 73.52 390.99C73.5589 390.752 73.5347 390.509 73.45 390.284C73.3653 390.059 73.2229 389.86 73.0372 389.707C72.5955 389.298 72.0846 388.971 71.5284 388.742C71.0082 388.513 70.4511 388.38 69.8838 388.349C69.1596 388.349 68.4957 388.726 68.5108 389.255C68.5259 389.783 69.1445 390.416 69.6575 390.914C70.0404 391.283 70.46 391.612 70.9098 391.895C71.4278 392.192 71.9871 392.411 72.5694 392.544Z" fill="black"/>
<path fill-rule="evenodd" clip-rule="evenodd" d="M72.6749 392.65C72.7805 392.846 72.7956 393.132 72.8862 393.359C73.26 394.103 73.8089 394.745 74.4855 395.23C74.9838 395.542 75.5367 395.757 76.115 395.863C76.4021 395.887 76.6909 395.846 76.9599 395.743C77.2138 395.637 77.424 395.448 77.5557 395.206C77.6874 394.965 77.7327 394.686 77.6841 394.415C77.6569 393.841 77.4081 393.3 76.9901 392.906C76.8994 392.814 76.7981 392.733 76.6883 392.665C76.4056 392.487 76.0942 392.359 75.768 392.287C75.4511 392.197 75.1795 392.121 75.1343 392.031C75.3692 391.916 75.6272 391.857 75.8887 391.857C76.1501 391.857 76.4081 391.916 76.6431 392.031C77.2247 392.263 77.6984 392.704 77.9708 393.268C78.2492 393.829 78.329 394.467 78.1971 395.079C78.1493 395.305 78.0566 395.518 77.9244 395.708C77.7922 395.897 77.6232 396.058 77.4276 396.18C77.0378 396.383 76.5972 396.467 76.1602 396.422C75.3695 396.344 74.6241 396.017 74.0328 395.486C73.6384 395.125 73.3204 394.689 73.0974 394.204C72.8564 393.718 72.7129 393.19 72.6749 392.65Z" fill="black"/>
<path fill-rule="evenodd" clip-rule="evenodd" d="M72.5693 392.227C72.3231 392.242 72.0762 392.242 71.83 392.227C71.0238 392.324 70.2821 392.717 69.7479 393.328C69.4279 393.798 69.2739 394.361 69.3103 394.928C69.3645 395.191 69.4958 395.433 69.6875 395.622C69.849 395.825 70.0602 395.983 70.3007 396.081C70.5413 396.179 70.803 396.213 71.0605 396.18C71.5794 396.003 72.0076 395.629 72.2524 395.139C72.3267 395.028 72.3923 394.912 72.4486 394.792C72.5865 394.489 72.7024 394.176 72.7956 393.856C72.9012 393.524 72.9918 393.268 73.0974 393.223C73.2664 393.711 73.2664 394.243 73.0974 394.731C72.9423 395.295 72.6523 395.813 72.2524 396.24C72.0336 396.497 71.7513 396.692 71.4337 396.806C71.116 396.92 70.7741 396.948 70.4419 396.889C70.0022 396.807 69.5991 396.589 69.2882 396.268C68.9774 395.946 68.7742 395.536 68.7068 395.094C68.6586 394.684 68.7072 394.268 68.8487 393.88C68.9902 393.492 69.2206 393.143 69.5215 392.861C69.9463 392.49 70.4713 392.254 71.0303 392.182C71.5409 392.09 72.065 392.105 72.5693 392.227Z" fill="black"/>
<path fill-rule="evenodd" clip-rule="evenodd" d="M66.4739 438.26C66.397 438 66.3514 437.731 66.3381 437.46C66.105 436.575 65.7495 435.727 65.282 434.94C64.9122 434.4 64.493 433.895 64.0297 433.432C63.9383 433.32 63.8189 433.235 63.6837 433.184C63.5485 433.134 63.4024 433.12 63.2602 433.145C62.7321 433.251 63.1395 434.111 63.3809 434.654C63.6702 435.278 64.0405 435.861 64.4823 436.389L64.7841 436.736C65.043 437.025 65.3257 437.293 65.629 437.536C65.9006 437.807 66.0816 438.064 66.0515 438.184C65.525 438.032 65.0469 437.746 64.6634 437.355C63.7233 436.512 63.0165 435.442 62.6114 434.246C62.5332 434.032 62.4825 433.809 62.4605 433.583C62.4415 433.433 62.4606 433.282 62.516 433.142C62.5714 433.002 62.6613 432.879 62.7774 432.783C63.0071 432.619 63.2904 432.548 63.5704 432.584C63.8503 432.621 64.1061 432.762 64.2862 432.979C64.8923 433.541 65.402 434.198 65.795 434.925C66.0317 435.408 66.2187 435.914 66.3532 436.434C66.4515 437.037 66.4919 437.649 66.4739 438.26Z" fill="black"/>
<path d="M240.468 235.146L235.941 246.568L234.433 259.664V271.584L233.211 277.181L234.553 293.19L237.737 306.241L235.112 310.978L237.239 324.663L236.862 333.957L234.342 352.229L237.48 368.931L237.631 379.719H266.449L265.453 359.063L266.721 345.575L265.106 329.582L267.505 315.203L266.132 310.677L267.973 293.823L268.501 277.558L267.837 259.8L263.13 235.81C263.13 235.81 247.755 236.821 240.468 235.146Z" fill="#F1FAEE"/>
<path d="M63.0188 548.81C62.8381 548.825 62.6564 548.825 62.4757 548.81C58.6886 548.81 15.8691 548.402 34.4423 554.06C53.8605 559.99 121.952 560.322 152.943 557.681C177.301 555.882 201.786 556.955 225.893 560.88C242.595 563.596 277.72 568.152 291.541 560.986C300.186 556.459 315.832 557.078 330.03 558.934C359.719 562.975 389.771 563.628 419.607 560.88C444.185 558.496 458.836 551.012 419.607 547.799C419.367 547.782 419.13 547.741 418.898 547.678L402.301 543.529C399.842 543.167 396.96 544.585 394.923 545.867C394.116 546.386 393.166 546.634 392.208 546.577C391.251 546.52 390.337 546.161 389.597 545.551C388.989 545.05 388.261 544.718 387.485 544.585L353.235 538.716C352.994 538.701 352.752 538.701 352.511 538.716L193.213 537.554L122.646 536.453C122.182 536.437 121.718 536.498 121.273 536.634L90.9466 545.686C90.6854 545.765 90.4178 545.82 90.1469 545.852L63.0188 548.81Z" fill="#FFD6B9"/>
<path opacity="0.33" d="M99.6372 541.974H99.1997C96.1821 541.974 61.6609 541.612 76.5678 546.501C92.214 551.585 147.074 551.872 171.999 549.609C191.61 548.062 211.338 548.979 230.721 552.34C244.165 554.678 272.454 558.586 283.529 552.445C290.484 548.598 303.143 549.081 314.535 550.68C338.444 554.151 362.687 554.708 386.73 552.34C406.526 550.303 418.279 543.875 386.73 541.099C386.532 541.084 386.336 541.054 386.142 541.009L372.729 537.433C370.573 537.401 368.473 538.115 366.784 539.455C366.143 539.888 365.375 540.096 364.603 540.047C363.83 539.998 363.096 539.694 362.514 539.183C362.036 538.751 361.445 538.463 360.809 538.353L333.229 533.299C333.033 533.284 332.836 533.284 332.64 533.299L204.393 532.288L147.572 531.337C147.198 531.339 146.827 531.394 146.47 531.503L122.043 539.304L121.409 539.44L99.6372 541.974Z" fill="#DDB499"/>
<path d="M126.66 246.794L136.618 253.78C137.33 254.281 138.17 254.571 139.04 254.616C139.91 254.661 140.775 254.46 141.536 254.036L149.895 249.344C154.852 246.578 160.349 244.92 166.009 244.486C178.804 243.55 202.039 243.233 215.105 251.562C215.559 251.845 216.103 251.95 216.63 251.855C217.157 251.76 217.63 251.473 217.957 251.049C218.27 250.66 218.441 250.175 218.441 249.676C218.441 249.176 218.27 248.692 217.957 248.303C214.381 244.033 201.149 231.555 166.658 228.824C154.383 227.735 142.124 231.069 132.091 238.224C129.97 239.735 128.026 241.481 126.298 243.429C126.089 243.669 125.933 243.949 125.837 244.252C125.742 244.555 125.711 244.875 125.745 245.191C125.779 245.506 125.878 245.812 126.035 246.088C126.192 246.364 126.405 246.604 126.66 246.794Z" fill="#F1FAEE"/>
<path d="M144.297 260.222C150.598 264.159 157.73 266.571 165.127 267.268C172.524 267.964 179.981 266.926 186.906 264.236C211.499 255.183 219.586 260.66 219.586 260.66C219.586 260.66 171.576 301.684 144.297 260.222Z" fill="#F1FAEE"/>
<path d="M152.867 379.568C159.421 381.325 166.313 381.385 172.896 379.743C179.479 378.101 185.536 374.812 190.497 370.183C208.24 354.145 217.036 356.755 217.036 356.755C217.036 356.755 190.587 410 152.867 379.568Z" fill="#F1FAEE"/>
<path d="M136.738 350.192C136.738 350.192 158.948 359.033 184.28 344.745C209.613 330.457 219.511 334.048 219.511 334.048C219.511 334.048 174.368 384.939 136.738 350.192Z" fill="#F1FAEE"/>
<path d="M145.867 298.349C145.867 298.349 188.49 324.814 218.424 279.037C218.424 279.037 200.319 290.956 183.994 290.67C167.669 290.383 145.867 298.349 145.867 298.349Z" fill="#F1FAEE"/>
<path d="M140.39 328.948C140.296 328.653 140.265 328.341 140.297 328.034C140.33 327.726 140.426 327.428 140.579 327.159C140.732 326.89 140.938 326.655 141.186 326.47C141.434 326.284 141.718 326.152 142.019 326.081C151.796 323.697 197.995 312.502 217.459 310.676C217.842 310.641 218.229 310.698 218.585 310.842C218.942 310.987 219.26 311.214 219.511 311.506C219.78 311.816 219.968 312.188 220.056 312.589C220.143 312.99 220.129 313.407 220.013 313.801C219.897 314.195 219.684 314.553 219.393 314.843C219.102 315.133 218.743 315.345 218.349 315.459C209.296 318.024 186.091 325.236 172.346 334.726C157.122 345.228 142.668 335.421 140.39 328.948Z" fill="#F1FAEE"/>
<path d="M92.591 363.847C92.591 363.847 68.6616 331.785 119.674 270.015C119.674 270.015 132.272 255.078 141.219 266.348C147.541 274.33 127.037 306.905 113.08 327.379C106.004 337.759 100.467 342.226 92.6061 363.847H92.591Z" fill="#F1FAEE"/>
<path d="M90.5542 366.095C90.5542 366.095 94.3111 389.164 108.765 406.032C123.22 422.901 122.586 443.677 121.877 446.392C121.515 447.72 121.062 449.048 119.719 449.335C116.702 449.968 110.244 446.966 98.8979 423.368C81.7731 387.821 90.5542 366.095 90.5542 366.095Z" fill="#F1FAEE"/>
<path d="M240.468 235.146C240.468 235.146 226.074 241.951 225.908 249.359C225.742 256.767 234.01 263.18 250.29 259.921" fill="#F1FAEE"/>
<path d="M234.342 259.664C234.342 259.664 226.179 265.82 227.824 271.086C228.82 274.284 231.747 276.759 236.771 277.619" fill="#F1FAEE"/>
<path d="M236.575 363.077C236.575 363.077 228.413 369.233 230.057 374.498C231.702 379.764 238.537 383.053 251.377 380.428" fill="#F1FAEE"/>
<path d="M233.935 276.864C233.935 276.864 226.18 282.779 225.908 289.131C225.727 293.189 234.252 293.431 240.468 293.069" fill="#F1FAEE"/>
<path d="M234.523 293.19C234.523 293.19 224.867 302.243 231.672 308.006C238.476 313.77 248.012 309.772 248.012 309.772" fill="#F1FAEE"/>
<path d="M235.489 310.662C235.489 310.662 227.311 316.818 228.956 322.083C230.6 327.349 236.5 331.136 249.385 328.586" fill="#F1FAEE"/>
<path d="M237.194 328.948C237.194 328.948 229.424 334.862 229.152 341.214C228.88 347.566 250.064 344.549 250.064 344.549" fill="#F1FAEE"/>
<path d="M235.595 345.273C235.595 345.273 225.938 354.326 232.743 360.09C239.548 365.853 249.098 361.855 249.098 361.855" fill="#F1FAEE"/>
<path d="M375.233 247.05L365.26 254.036C364.553 254.544 363.714 254.837 362.844 254.879C361.974 254.922 361.111 254.713 360.357 254.278L351.983 249.6C347.039 246.817 341.542 245.158 335.884 244.742C323.089 243.807 299.854 243.49 286.788 251.818C286.332 252.095 285.79 252.196 285.265 252.101C284.74 252.007 284.267 251.724 283.936 251.305C283.621 250.914 283.45 250.427 283.45 249.925C283.45 249.423 283.621 248.935 283.936 248.544C287.512 244.289 300.744 231.812 335.235 229.081C347.51 227.991 359.769 231.325 369.802 238.48C371.927 239.987 373.871 241.733 375.595 243.686C375.804 243.926 375.96 244.206 376.055 244.509C376.151 244.812 376.182 245.131 376.148 245.447C376.114 245.763 376.015 246.068 375.858 246.344C375.701 246.62 375.488 246.86 375.233 247.05Z" fill="#F1FAEE"/>
<path d="M357.595 260.54C351.292 264.477 344.157 266.889 336.757 267.583C329.357 268.277 321.898 267.234 314.972 264.538C290.394 255.485 282.307 260.977 282.307 260.977C282.307 260.977 330.316 302.001 357.595 260.54Z" fill="#F1FAEE"/>
<path d="M349.011 379.825C342.455 381.581 335.56 381.642 328.975 380C322.39 378.358 316.33 375.068 311.366 370.44C293.623 354.386 284.842 357.012 284.842 357.012C284.842 357.012 311.291 410.302 349.011 379.825Z" fill="#F1FAEE"/>
<path d="M365.154 350.493C365.154 350.493 342.975 359.35 317.612 345.122C292.25 330.894 282.382 334.425 282.382 334.425C282.382 334.425 327.525 385.256 365.154 350.493Z" fill="#F1FAEE"/>
<path d="M356.011 298.636C356.011 298.636 313.403 325.1 283.469 279.309C283.469 279.309 301.574 291.243 317.899 290.956C334.224 290.67 356.011 298.636 356.011 298.636Z" fill="#F1FAEE"/>
<path d="M361.503 329.25C361.597 328.955 361.628 328.645 361.595 328.338C361.563 328.031 361.467 327.735 361.314 327.467C361.16 327.199 360.953 326.965 360.706 326.781C360.458 326.597 360.175 326.467 359.874 326.398C350.082 323.999 303.898 312.819 284.434 310.993C284.051 310.958 283.664 311.015 283.307 311.159C282.951 311.303 282.633 311.531 282.382 311.823C282.113 312.133 281.925 312.505 281.837 312.906C281.75 313.307 281.764 313.724 281.88 314.118C281.996 314.512 282.209 314.87 282.5 315.16C282.791 315.45 283.15 315.662 283.544 315.776C292.597 318.341 315.802 325.553 329.547 335.043C344.756 345.545 359.225 335.722 361.503 329.25Z" fill="#F1FAEE"/>
<path d="M409.362 364.163C409.362 364.163 433.292 332.101 382.294 270.331C382.294 270.331 369.696 255.379 360.749 266.665C354.412 274.631 374.931 307.221 388.888 327.696C395.964 338.076 401.501 342.542 409.362 364.163Z" fill="#F1FAEE"/>
<path d="M411.339 366.411C411.339 366.411 407.582 389.481 393.128 406.349C378.673 423.217 379.292 443.993 380.016 446.694C380.363 448.037 380.831 449.365 382.174 449.636C385.191 450.285 391.649 447.267 402.995 423.685C420.12 388.138 411.339 366.411 411.339 366.411Z" fill="#F1FAEE"/>
<path d="M262.572 235.87C262.572 235.87 275.819 242.268 275.985 249.676C276.106 254.896 272.017 259.634 263.915 260.811" fill="#F1FAEE"/>
<path d="M267.536 259.981C267.536 259.981 275.698 266.137 274.054 271.402C272.409 276.668 265.574 279.957 252.734 277.332" fill="#F1FAEE"/>
<path d="M265.318 363.394C265.318 363.394 273.48 369.55 271.836 374.815C270.191 380.081 263.356 383.37 250.517 380.73" fill="#F1FAEE"/>
<path d="M267.958 277.227C267.958 277.227 275.713 283.126 275.985 289.493C276.256 295.86 255.073 292.828 255.073 292.828" fill="#F1FAEE"/>
<path d="M267.37 293.507C267.37 293.507 277.026 302.559 270.221 308.323C268.546 309.752 266.529 310.724 264.367 311.144" fill="#F1FAEE"/>
<path d="M266.404 310.979C266.404 310.979 274.582 317.134 272.922 322.4C271.579 326.715 266.751 329.703 258.015 329.19" fill="#F1FAEE"/>
<path d="M264.699 329.265C264.699 329.265 272.454 335.164 272.726 341.531C272.862 344.549 268.2 345.454 263.22 345.575" fill="#F1FAEE"/>
<path d="M266.283 345.59C266.283 345.59 275.94 354.643 269.15 360.407C267.076 362.136 264.523 363.189 261.832 363.424" fill="#F1FAEE"/>
<path d="M212.646 177.42L210.322 187.257C210.322 187.257 213.596 191.346 220.28 189.385L222.347 180.332" fill="#F1FAEE"/>
<path d="M228.609 207.369L229.816 200.564C229.816 200.564 226.27 196.732 219.737 199.146L218.952 203.838" fill="#F1FAEE"/>
<path d="M276.588 206.132L274.536 199.131C274.536 199.131 277.72 194.982 284.449 196.793L285.958 201.908" fill="#F1FAEE"/>
<path d="M243.395 210.583L244.391 202.873C244.391 202.873 240.679 199.207 234.267 201.923L233.361 208.697" fill="#F1FAEE"/>
<path d="M257.895 210.84L258.106 203.552C258.106 203.552 254.047 199.796 247.891 203.19L247.635 210.644" fill="#F1FAEE"/>
<path d="M272.454 207.686L271.368 200.489C271.368 200.489 266.706 197.472 261.259 201.998L262.466 210.372" fill="#F1FAEE"/>
<path d="M225.123 181.267L224.052 190.863C224.052 190.863 227.809 194.499 234.191 191.708L235.112 182.942" fill="#F1FAEE"/>
<path d="M238.703 183.575L238.34 193.217C238.34 193.217 242.339 196.566 248.51 193.307L248.781 183.666" fill="#F1FAEE"/>
<path d="M252.87 183.682L253.202 192.523C253.202 192.523 257.457 195.541 263.356 191.859L262.964 183.048" fill="#F1FAEE"/>
<path d="M265.242 182.474L266.842 190.773C266.842 190.773 271.504 193.127 276.784 188.57L275.276 180.694" fill="#F1FAEE"/>
<path d="M278.097 180.181L281.613 189.098C281.613 189.098 286.637 190.607 290.982 185.1L287.965 177.646" fill="#F1FAEE"/>
<path d="M218.274 203.552C210.581 199.929 204.286 193.888 200.349 186.352C199.506 184.788 198.272 183.47 196.767 182.526C195.262 181.582 193.539 181.044 191.764 180.965L175.469 180.181L188.475 205.076C189.495 206.992 191.016 208.595 192.876 209.714C194.736 210.833 196.866 211.425 199.036 211.428C202.597 211.428 208.18 213.736 216.599 221.989C218.872 224.236 221.358 226.257 224.022 228.024C232.258 233.606 242.034 236.471 251.98 236.217H252.599C262.545 236.471 272.321 233.606 280.557 228.024C283.22 226.257 285.706 224.236 287.98 221.989C296.399 213.751 301.981 211.428 305.542 211.428C307.713 211.425 309.842 210.833 311.702 209.714C313.563 208.595 315.084 206.992 316.104 205.076L329.11 180.181L311.774 180.558C310.057 180.603 308.379 181.075 306.891 181.931C305.402 182.787 304.151 184 303.249 185.461C299.565 191.002 294.932 195.849 289.564 199.78C278.535 206.615 255.028 219.349 218.274 203.552Z" fill="#F1FAEE"/>
<path d="M294.573 174.538C242.957 194.726 206.007 174.221 206.007 174.221L209.432 172.863C209.432 172.863 155.206 190.245 168.453 138.825C169.268 135.736 170.307 132.711 171.561 129.772C173.99 124.054 178.592 111.048 174.7 102.524L171.908 116.767C171.837 117.117 171.662 117.438 171.406 117.689C171.151 117.939 170.827 118.107 170.475 118.172C170.123 118.237 169.76 118.195 169.432 118.053C169.104 117.91 168.826 117.672 168.634 117.37C162.735 107.789 149.548 80.1481 168.755 47.6487C175.999 35.6191 186.087 25.5524 198.131 18.3329C210.953 10.4988 225.022 4.92098 239.729 1.8418C243.408 1.09663 247.155 0.732597 250.909 0.755471C254.668 0.731881 258.419 1.09592 262.104 1.8418C277.295 5.02535 291.802 10.8742 304.954 19.1175C316.181 26.0473 325.632 35.5082 332.55 46.7435C352.556 79.6503 339.173 107.714 333.213 117.385C332.368 118.758 330.196 118.396 329.879 116.42L327.148 102.539C323.301 110.988 327.797 123.843 330.241 129.697C331.532 132.724 332.601 135.84 333.44 139.021C346.551 190.32 292.431 172.924 292.431 172.924L294.573 174.538Z" fill="#F1FAEE"/>
<path d="M187.57 103.896C184.16 111.787 175.846 135.883 198.584 141.209C203.404 142.261 208.399 142.224 213.204 141.103C245.145 134.102 234.418 108 230.646 100.577C230.344 99.9831 229.874 99.4916 229.294 99.1642C228.714 98.8367 228.051 98.6878 227.387 98.7361L191.357 101.211C190.538 101.263 189.751 101.542 189.082 102.016C188.413 102.49 187.89 103.141 187.57 103.896Z" fill="#1B1633"/>
<path d="M313.856 103.896C317.265 111.787 325.579 135.883 302.841 141.209C298.021 142.261 293.026 142.224 288.221 141.103C256.28 134.102 266.992 108 270.779 100.577C271.081 99.9831 271.551 99.4916 272.131 99.1642C272.711 98.8367 273.374 98.6878 274.038 98.7361L310.068 101.211C310.887 101.263 311.674 101.542 312.343 102.016C313.012 102.49 313.535 103.141 313.856 103.896Z" fill="#1B1633"/>
<path d="M251.889 119.497C251.889 119.497 247.454 134.465 239.698 143.849C231.943 153.234 235.579 161.789 235.579 161.789C235.579 161.789 240.679 160.28 246.141 165.742C250.124 169.71 258.649 166.557 262.949 164.58C263.902 164.142 264.731 163.474 265.363 162.637C265.995 161.799 266.409 160.819 266.57 159.782C267.175 154.975 266.11 150.107 263.552 145.992C257.804 135.792 253.73 129.199 251.889 119.497Z" fill="#1B1633"/>
<path d="M376.667 378.09H125.226C120.468 378.09 116.611 381.947 116.611 386.705V532.937C116.611 537.695 120.468 541.552 125.226 541.552H376.667C381.425 541.552 385.282 537.695 385.282 532.937V386.705C385.282 381.947 381.425 378.09 376.667 378.09Z" fill="#E0E0E0"/>
<path d="M385.644 495.669V533.555C385.644 535.836 384.738 538.024 383.125 539.636C381.512 541.249 379.325 542.155 377.044 542.155H125.588C123.306 542.155 121.117 541.25 119.502 539.637C117.887 538.025 116.977 535.837 116.973 533.555" stroke="#7C7C7C" stroke-width="1.50879" stroke-miterlimit="10" stroke-linecap="round"/>
<path d="M100.769 547.119C100.769 547.119 1.67129 562.207 0.0267018 463.502C0.0267018 463.502 -0.471199 450.39 2.83306 449.41C6.13731 448.429 11.8858 452.141 17.4834 468.104C22.5228 482.498 30.972 520.112 109.656 546.455L100.769 547.119Z" fill="#E5AC62"/>
<path d="M101.976 541.552C101.976 541.552 64.437 521.545 60.9366 476.779C57.4362 432.013 57.8134 369.263 42.9367 372.28C28.06 375.298 19.8974 407.918 21.4213 431.847C22.6887 451.582 25.9477 479.239 48.8059 505.688C56.4541 514.364 65.3291 521.877 75.1495 527.988C104.692 546.772 109.656 546.093 109.656 546.093L101.976 541.552Z" fill="#B44538"/>
<path d="M129.692 546.999C130.764 547.919 133.811 550.092 124.049 547.572C105.944 542.88 58.9299 515.194 76.8996 437.762C77.4428 435.393 81.426 430.912 82.105 437.385C84.2324 458.282 99.0035 520.399 129.692 546.999Z" fill="#7F265B"/>
<path d="M355.302 545.988C356.373 546.909 359.421 549.081 349.659 546.561C331.554 541.884 284.54 514.183 302.494 436.752C303.053 434.383 307.021 429.902 307.715 436.374C309.782 457.256 324.613 519.388 355.302 545.988Z" fill="#7F265B"/>
<path d="M95.6086 491.355C95.6086 491.355 87.2348 447.207 93.7981 433.417C102.112 415.9 101.553 503.319 103.877 510.365C103.877 510.29 96.1216 493.603 95.6086 491.355Z" fill="#E5AC62"/>
<path d="M155.176 546.607C154.995 548.387 158.088 548.84 159.702 547.995C169.419 542.654 186 519.856 177.461 484.022C167.955 444.024 157.258 526.389 155.176 546.607Z" fill="#B44538"/>
<path d="M218.666 547.195C218.379 548.191 219.964 548.704 220.869 548.417C226.542 546.365 237.662 535.094 236.983 513.986C236.228 490.419 221.91 535.969 218.666 547.195Z" fill="#7F265B"/>
<path d="M161.015 548.809C161.015 548.809 135.365 555.387 139.514 476.613C143.664 397.839 150.076 507.559 150.076 507.559C150.076 507.559 151.585 546.455 161.015 548.809Z" fill="#7F265B"/>
<path d="M359.195 547.421C359.195 547.421 333.545 553.999 337.695 475.225C341.844 396.451 348.256 506.155 348.256 506.155C348.256 506.155 349.765 545.007 359.195 547.421Z" fill="#7F265B"/>
<path d="M159.265 548.417C159.265 548.417 162.614 512.824 182.244 499.109C199.957 486.752 175.846 536.452 164.968 548.16C163.791 549.443 160.532 549.05 159.265 548.417Z" fill="#E5AC62"/>
<path d="M199.429 544.811C199.429 544.811 202.763 509.219 222.408 495.504C240.121 483.132 215.995 532.831 205.132 544.54C203.94 545.792 200.681 545.43 199.429 544.811Z" fill="#E5AC62"/>
<path d="M380.378 548.93C380.378 548.93 446.448 500.045 469.322 509.248C492.195 518.452 396.115 551.057 380.378 548.93Z" fill="#B44538"/>
<path d="M369.228 549.624C369.228 549.624 398.197 524.819 413.119 494.1C428.041 463.381 448.893 421.241 490.158 422.327C531.423 423.413 420.588 518.452 420.588 518.452C420.588 518.452 399.691 539.017 380.439 548.145C379.835 548.432 379.277 548.764 378.703 549.096C377.299 549.983 375.692 550.496 374.034 550.589C372.376 550.681 370.722 550.349 369.228 549.624Z" fill="#E5AC62"/>
<path d="M356.554 549.021C356.554 549.021 373.996 505.055 380.529 489.967C386.76 475.482 409.196 444.793 421.659 444.311C434.846 443.813 375.475 540.059 366.135 549.051C366.135 549.021 363.495 545.792 356.554 549.021Z" fill="#7F265B"/>
<path d="M356.751 548.462C356.751 548.462 333.923 521.983 353.99 498.506C374.056 475.029 356.751 548.462 356.751 548.462Z" fill="#E5AC62"/>
<path d="M269.406 549.02C269.406 549.02 246.594 522.556 266.645 499.079C286.697 475.602 269.406 549.02 269.406 549.02Z" fill="#E5AC62"/>
<path d="M199.64 545.973C199.64 545.973 176.827 519.493 196.879 496.017C216.931 472.54 199.64 545.973 199.64 545.973Z" fill="#B44538"/>
<path d="M291.556 544.962C291.556 544.962 268.743 518.483 288.795 495.006C308.846 471.529 291.556 544.962 291.556 544.962Z" fill="#B44538"/>
<path d="M268.894 548.9C268.894 548.9 237.948 532.665 247.921 503.546C257.894 474.426 268.894 548.9 268.894 548.9Z" fill="#7F265B"/>
<path d="M345.782 546.833C345.782 546.833 329.864 541.431 334.828 530.915C334.828 530.915 343.654 520.504 348.15 543.468C348.238 543.846 348.245 544.239 348.17 544.62C348.096 545.001 347.942 545.362 347.718 545.68C347.494 545.997 347.206 546.264 346.873 546.463C346.539 546.662 346.167 546.788 345.782 546.833Z" fill="#B44538"/>
<path d="M248.887 546.184C248.887 546.184 232.954 540.782 237.933 530.266C237.933 530.266 246.759 519.855 251.241 542.819C251.331 543.197 251.34 543.589 251.267 543.97C251.194 544.351 251.042 544.712 250.82 545.03C250.597 545.348 250.31 545.615 249.977 545.814C249.644 546.013 249.272 546.139 248.887 546.184Z" fill="#B44538"/>
<path d="M196.818 546.833C196.818 546.833 180.901 541.431 185.865 530.915C185.865 530.915 194.691 520.504 199.187 543.468C199.272 543.846 199.277 544.238 199.202 544.618C199.126 544.998 198.972 545.359 198.749 545.676C198.526 545.993 198.239 546.259 197.906 546.459C197.574 546.658 197.203 546.785 196.818 546.833Z" fill="#7F265B"/>
<path d="M136.421 547.995C136.421 547.995 152.339 542.593 147.375 532.077C147.375 532.077 138.549 521.666 134.053 544.63C133.965 545.008 133.958 545.401 134.033 545.782C134.107 546.163 134.261 546.524 134.485 546.842C134.709 547.159 134.997 547.426 135.33 547.625C135.664 547.823 136.036 547.949 136.421 547.995Z" fill="#E5AC62"/>
<path d="M290.047 544.811C290.047 544.811 297.727 518.03 322.742 491.912C347.758 465.795 358.953 454.509 370.586 452.08C382.219 449.651 334.813 503.983 319.016 518.03C303.219 532.076 298.391 543.483 293.774 544.811C289.157 546.138 290.047 544.811 290.047 544.811Z" fill="#E5AC62"/>
<path d="M310.129 543.498C311.136 533.995 315.8 525.257 323.135 519.131C335.311 509.249 331.192 520.64 331.192 520.64C331.192 520.64 327.405 538.58 315.893 543.529C315.893 543.498 311.849 545.43 310.129 543.498Z" fill="#B44538"/>
<path d="M268.667 545.309C268.693 544.302 268.668 543.295 268.592 542.291C268.049 534.37 267.747 501.81 297.515 487.597C331.524 471.363 271.398 550.031 271.398 550.031C271.398 550.031 268.577 550.182 268.667 545.309Z" fill="#7F265B"/>
<path d="M199.912 545.912C199.912 545.912 212.253 516.038 222.8 513.549C233.346 511.059 208.029 544.811 208.029 544.811C208.029 544.811 203.201 547.089 199.912 545.912Z" fill="#B44538"/>
<path d="M136.482 546.335C136.693 548.387 133.072 548.9 131.246 547.934C119.84 541.778 100.392 515.616 110.41 474.275C121.59 428.227 134.038 523.054 136.482 546.335Z" fill="#B44538"/>
<path d="M239.472 471.061L240.996 485.349L247.695 486.511L256.476 485.983L262.285 484.776L263.613 471.061H239.472Z" fill="#F1FAEE"/>
<path d="M259.237 473.943V485.349C264.141 489.498 266.057 484.67 266.057 484.67L266.6 462.838C266.6 462.838 284.163 454.283 280.873 436.057C279.531 428.664 274.34 423.836 268.652 420.713C263.221 417.751 257.133 416.198 250.947 416.198C244.76 416.198 238.672 417.751 233.241 420.713C227.553 423.836 222.362 428.664 221.02 436.057C217.746 454.283 235.278 462.808 235.278 462.808L235.836 484.64C235.836 484.64 239.351 489.8 243.289 485.515L243.184 472.464" fill="#F1FAEE"/>
<path d="M243.289 485.546C243.289 485.546 248.555 490.238 250.939 485.546V473.204" fill="#F1FAEE"/>
<path d="M250.939 485.546C250.939 485.546 255.314 490.495 259.237 485.35L250.939 485.546Z" fill="#F1FAEE"/>
<path d="M237.013 442.077C236.753 442.028 236.486 442.033 236.229 442.094C235.972 442.156 235.73 442.27 235.521 442.431C235.311 442.593 235.138 442.796 235.013 443.029C234.888 443.262 234.814 443.519 234.795 443.782C234.433 448.656 234.433 463.789 243.018 461.963C253.247 459.775 248.721 449.048 242.595 444.567C240.965 443.294 239.049 442.44 237.013 442.077Z" fill="#1B1633"/>
<path d="M265.046 442.077C265.305 442.03 265.572 442.038 265.828 442.1C266.084 442.162 266.325 442.277 266.533 442.438C266.742 442.598 266.915 442.801 267.041 443.032C267.167 443.264 267.243 443.52 267.264 443.782C267.611 448.656 267.611 463.789 259.026 461.963C248.796 459.775 253.323 449.048 259.448 444.567C261.084 443.293 263.005 442.439 265.046 442.077Z" fill="#1B1633"/>
<path opacity="0.35" d="M173.794 123.767C173.794 123.767 157.62 158.168 173.221 170.54C187.932 180.724 209.432 172.894 209.432 172.894C209.432 172.894 166.024 176.258 173.794 123.767Z" fill="#AD7B40"/>
<path opacity="0.35" d="M131.322 250.068C131.322 250.068 177.461 221.628 217.957 251.049C217.957 251.049 217.112 253.131 214.275 251.049C211.439 248.967 195.566 241.996 169.449 244.365C160.488 244.762 151.8 247.566 144.297 252.482C144.297 252.482 140.103 256.707 136.105 253.418C132.106 250.129 131.322 250.068 131.322 250.068Z" fill="#AD7B40"/>
<path opacity="0.35" d="M145.142 261.475C145.142 261.475 164.259 289.071 219.586 260.66C219.586 260.66 198.116 279.279 175.831 278.766C153.546 278.253 145.142 261.475 145.142 261.475Z" fill="#AD7B40"/>
<path opacity="0.35" d="M146.334 298.591C146.334 298.591 190.089 310.118 217.957 279.716C217.957 279.716 204.468 305.049 176.48 305.879C176.48 305.894 159.536 306.844 146.334 298.591Z" fill="#AD7B40"/>
<path opacity="0.35" d="M140.39 328.948C140.39 328.948 152.113 341.621 197.045 320.046C214.381 313.392 209.658 317.119 219.586 312.985C219.586 312.985 220.793 315.248 216.885 315.881C212.978 316.515 194.631 323.425 194.631 323.425L175.499 332.689C175.499 332.689 159.506 346.268 145.323 334.922C143.332 333.245 141.661 331.22 140.39 328.948Z" fill="#AD7B40"/>
<path opacity="0.35" d="M138.489 351.746C138.489 351.746 170.686 372.462 219.194 334.38C219.194 334.38 194.027 362.111 166.824 362.338C166.824 362.338 152.747 363.861 138.489 351.746Z" fill="#AD7B40"/>
<path opacity="0.35" d="M92.591 363.846C92.591 363.846 90.4335 341.079 112.613 305.894C115.706 301.14 119.242 296.689 123.174 292.601C136.029 278.856 134.973 263.225 135.743 262.425C135.743 262.425 144.011 265.443 142.396 271.931C141.355 276.91 136.889 292.827 120.836 315.776C104.782 338.725 99.7125 347.461 99.7125 347.461L92.591 363.846Z" fill="#AD7B40"/>
<path opacity="0.35" d="M90.7654 367.271C90.7654 367.271 94.8995 389.692 107.83 404.915C111.498 409.293 114.507 414.183 116.762 419.43C116.234 429.509 118.12 422.915 116.355 428.03C116.355 428.03 116.551 441.73 116.143 448.535C112.507 448.203 113.714 431.153 112.537 428.679C108.509 420.26 103.485 410.498 95.2164 396.391C90.7654 388.952 89.5735 371.33 90.7654 367.271Z" fill="#AD7B40"/>
<path opacity="0.35" d="M327.736 123.933C327.736 123.933 343.926 158.334 328.325 170.706C313.599 180.875 292.114 173.044 292.114 173.044C292.114 173.044 335.522 176.424 327.736 123.933Z" fill="#AD7B40"/>
<path opacity="0.35" d="M370.209 250.25C370.209 250.25 324.085 221.809 283.589 251.23C283.589 251.23 284.419 253.297 287.271 251.23C290.122 249.163 305.965 242.178 332.082 244.546C341.043 244.942 349.731 247.746 357.233 252.664C357.233 252.664 361.428 256.873 365.441 253.599C369.455 250.325 370.209 250.25 370.209 250.25Z" fill="#AD7B40"/>
<path opacity="0.35" d="M356.404 261.656C356.404 261.656 337.272 289.252 281.96 260.841C281.96 260.841 303.415 279.46 325.715 278.947C348.015 278.434 356.404 261.656 356.404 261.656Z" fill="#AD7B40"/>
<path opacity="0.35" d="M355.196 298.772C355.196 298.772 311.441 310.284 283.589 279.882C283.589 279.882 297.078 305.229 325.066 306.059C325.066 306.059 341.994 307.025 355.196 298.772Z" fill="#AD7B40"/>
<path opacity="0.35" d="M361.081 329.114C361.081 329.114 349.358 341.788 304.426 320.227C287.105 313.558 291.812 317.3 281.899 313.166C281.899 313.166 280.692 315.429 284.6 316.063C288.508 316.696 306.84 323.607 306.84 323.607L326.001 332.825C326.001 332.825 341.995 346.405 356.177 335.043C358.161 333.384 359.823 331.374 361.081 329.114Z" fill="#AD7B40"/>
<path opacity="0.35" d="M363.042 351.912C363.042 351.912 330.905 372.643 282.337 334.561C282.337 334.561 307.504 362.292 334.722 362.504C334.722 362.504 348.799 364.043 363.042 351.912Z" fill="#AD7B40"/>
<path opacity="0.35" d="M408.955 364.028C408.955 364.028 411.097 341.26 388.918 306.075C385.853 301.321 382.342 296.87 378.432 292.782C365.592 279.037 366.648 263.391 365.864 262.607C365.864 262.607 357.595 265.624 359.225 272.097C360.251 277.076 364.717 293.009 380.771 315.957C396.824 338.906 401.894 347.642 401.894 347.642L408.955 364.028Z" fill="#AD7B40"/>
<path opacity="0.35" d="M410.765 367.438C410.765 367.438 406.646 389.873 393.716 405.082C390.471 408.947 387.742 413.217 385.599 417.786C386.066 430.143 385.282 442.651 385.372 449.048C385.372 449.048 389.069 449.214 388.993 437.838C388.985 433.144 390.016 428.507 392.011 424.259C395.496 416.805 399.887 407.662 406.329 396.633C410.765 389.134 411.972 371.496 410.765 367.438Z" fill="#AD7B40"/>
<path d="M183.3 118.622C183.3 118.622 182.998 132.775 188.746 136.335C194.495 139.896 199.308 143.547 211.816 141.39C224.324 139.232 230.51 132.337 230.51 132.337C230.51 132.337 235.851 125.276 235.791 117.43C235.791 117.43 233.92 132.292 215.648 136.456C210.258 137.607 204.711 137.826 199.248 137.105C184.054 134.404 183.3 118.622 183.3 118.622Z" fill="#0A0A16"/>
<path d="M318.322 118.622C318.322 118.622 318.638 132.775 312.875 136.335C307.111 139.896 302.313 143.547 289.805 141.39C277.298 139.232 271.127 132.337 271.127 132.337C271.127 132.337 265.785 125.276 265.831 117.43C265.831 117.43 267.702 132.292 285.973 136.456C291.363 137.607 296.91 137.826 302.374 137.105C317.582 134.404 318.322 118.622 318.322 118.622Z" fill="#0A0A16"/>
<path d="M235.579 161.789C235.579 161.789 233.211 156.961 236.409 149.085C239.608 141.209 241.539 144.725 244.692 136.426C246.267 132.06 248.19 127.827 250.441 123.767C250.441 123.767 247.167 143.035 243.636 145.253C240.106 147.471 234.493 155.452 238.371 159.164C242.248 162.875 242.474 157.097 247.091 163.6C251.708 170.103 259.856 165.863 259.856 165.863L253.67 168.051C253.67 168.051 249.415 168.895 244.949 164.671C243.745 163.456 242.26 162.557 240.626 162.054C238.991 161.552 237.258 161.46 235.579 161.789Z" fill="#0A0A16"/>
<path opacity="0.11" d="M168.634 116.721C168.634 116.721 148.16 90.4681 166.431 51.2093C194.917 3.62195 246.579 0.906128 246.579 0.906128C246.579 0.906128 153.426 26.5556 174.7 101.875C172.255 125.472 168.559 114.563 168.634 116.721Z" fill="#E5AC62"/>
<path opacity="0.11" d="M333.379 117.702C333.379 117.702 353.869 91.449 335.597 52.2053C307.111 4.60289 255.465 1.90215 255.465 1.90215C255.465 1.90215 348.603 27.5516 327.329 102.871C329.773 126.453 333.47 115.544 333.379 117.702Z" fill="#E5AC62"/>
<path opacity="0.35" d="M202.657 211.504C202.657 211.504 213.46 217.75 217.323 222.774C221.185 227.799 234.689 235.554 245.552 235.871C256.416 236.187 261.561 236.655 272.394 232.385C280.979 229.021 288.281 222.08 290.937 219.334C291.759 218.489 292.652 217.716 293.607 217.026C295.948 215.206 298.477 213.643 301.151 212.364C301.921 212.122 299.326 210.855 288.1 218.791C274.763 228.161 247.785 234.965 217.594 220.074C216.199 219.379 214.897 218.512 213.717 217.493C206.324 211.096 207.048 214.747 202.657 211.504Z" fill="#AD7B40"/>
<path opacity="0.35" d="M230.012 242.147C230.012 242.147 215.829 254.836 238.582 260.57C247.997 263.391 266.962 263.391 273.661 256.043C278.097 250.763 234.734 265.881 230.012 242.147Z" fill="#AD7B40"/>
<path opacity="0.35" d="M228.201 267.103C228.201 267.103 222.574 279.867 250.833 278.766C279.093 277.664 273.978 270.256 273.978 270.256C273.978 270.256 231.702 282.87 228.201 267.103Z" fill="#AD7B40"/>
<path opacity="0.35" d="M273.978 283.745C273.978 283.745 285.324 296.373 253.941 294.185C253.941 294.185 234.086 294.668 228.292 292.073C222.498 289.478 226.859 285.344 226.859 285.344C226.859 285.344 245.613 299.753 273.978 283.745Z" fill="#AD7B40"/>
<path opacity="0.35" d="M229.152 301.624C229.152 301.624 226.813 312.834 247.74 311.144C247.74 311.144 265.846 315.188 271.881 306.467C277.916 297.746 244.119 317.33 229.152 301.156" fill="#AD7B40"/>
<path opacity="0.35" d="M228.775 320.046C228.775 320.046 226.345 331.377 251.859 330.23C277.373 329.084 272.741 320.122 272.741 320.122C272.741 320.122 239.261 333.052 228.775 320.046Z" fill="#AD7B40"/>
<path opacity="0.35" d="M230.314 337.578C230.314 337.578 221.14 346.857 249.385 344.579C249.385 344.579 264.171 349.106 271.564 343.07C278.957 337.035 234.508 346.903 230.314 337.578Z" fill="#AD7B40"/>
<path opacity="0.35" d="M195.023 378.09H200.515C207.031 371.831 212.583 364.641 216.991 356.755C209.655 365.921 200.263 373.229 189.576 378.09H195.023Z" fill="#AD7B40"/>
<path opacity="0.35" d="M301.106 378.09C294.712 371.869 289.254 364.754 284.902 356.967C292.084 365.975 301.249 373.203 311.683 378.09C306.372 377.878 306.04 377.984 301.106 378.09Z" fill="#AD7B40"/>
<path opacity="0.35" d="M230.434 353.873C230.434 353.873 227.417 364.314 248.736 363.454C270.055 362.594 269.014 362.368 271.051 357.917C273.088 353.466 238.144 365.144 230.434 353.873Z" fill="#AD7B40"/>
<path opacity="0.35" d="M230.676 371.134C230.676 371.134 228.563 375.766 234.116 378.255C237.42 378.255 241.403 378.255 249.098 378.014C263.326 377.44 267.988 379.356 269.859 377.908C270.795 377.184 270.613 376.656 271.368 375.177C273.329 370.771 238.371 382.389 230.676 371.134Z" fill="#AD7B40"/>
<path opacity="0.35" d="M212.646 177.42L222.347 180.347L220.763 187.348C220.763 187.348 220.491 182.067 212.646 177.42Z" fill="#AD7B40"/>
<path opacity="0.35" d="M224.445 187.348C225.692 185.861 227.276 184.693 229.066 183.942C230.856 183.192 232.8 182.88 234.735 183.033L225.38 180.875L224.445 187.574" fill="#AD7B40"/>
<path opacity="0.35" d="M238.34 186.367C238.34 186.367 244.376 184.345 248.706 186.729V183.425H238.612L238.34 186.367Z" fill="#AD7B40"/>
<path opacity="0.35" d="M252.976 186.035C252.976 186.035 258.724 183.561 263.085 185.598L262.828 182.58L253.232 183.003L252.976 186.035Z" fill="#AD7B40"/>
<path opacity="0.35" d="M266.283 187.861C266.283 187.861 273.088 180.739 275.215 180.694L265.242 182.474L266.283 187.861Z" fill="#AD7B40"/>
<path opacity="0.35" d="M278.097 180.181C278.097 180.181 286.546 179.23 289.986 182.61L287.648 176.771L278.097 180.181Z" fill="#AD7B40"/>
<path opacity="0.35" d="M219.254 202.27C219.254 202.27 226.044 205.031 229.227 204.095L228.654 207.369L218.47 203.612L219.254 202.27Z" fill="#AD7B40"/>
<path opacity="0.35" d="M233.663 206.132C236.918 207.627 240.56 208.06 244.074 207.369L243.561 210.583L233.316 208.697L233.663 206.132Z" fill="#AD7B40"/>
<path opacity="0.35" d="M247.635 208.35C247.635 208.35 253.549 210.04 258.03 208.35L257.895 210.885H247.635V208.35Z" fill="#AD7B40"/>
<path opacity="0.35" d="M262.119 207.822C265.606 208.159 269.112 207.422 272.168 205.71L272.696 207.822L262.466 210.282L262.119 207.822Z" fill="#AD7B40"/>
<path opacity="0.35" d="M275.894 203.884C279.26 203.065 282.426 201.577 285.204 199.508L285.913 201.696L276.422 206.509L275.894 203.884Z" fill="#AD7B40"/>
<path d="M116.656 413.109V385.634C116.656 385.634 118.09 378.09 124.608 378.09H148.914V379.221C142.031 379.402 135.171 380.109 128.395 381.334C126.423 381.781 124.633 382.815 123.259 384.298C121.886 385.782 120.994 387.647 120.7 389.647C119.402 398.051 117.531 413.154 117.531 413.154L116.656 413.109Z" fill="#F1FAEE"/>
<path d="M385.221 413.109V385.634C385.221 385.634 383.788 378.09 377.27 378.09H352.963V379.221C359.852 379.402 366.717 380.108 373.498 381.334C375.468 381.785 377.256 382.82 378.629 384.303C380.001 385.786 380.895 387.648 381.193 389.647C382.49 398.051 384.361 413.154 384.361 413.154L385.221 413.109Z" fill="#F1FAEE"/>
<path opacity="0.35" d="M224.007 452.081C224.007 452.081 224.007 454.932 235.278 462.839L235.775 482.453L235.157 476.599C233.657 469.909 231.034 463.523 227.402 457.709C225.138 453.876 225.38 455.385 224.007 452.081Z" fill="#AD7B40"/>
<path opacity="0.35" d="M277.841 452.081C277.841 452.081 277.841 454.932 266.555 462.839L266.057 482.453L266.676 476.599C268.182 469.912 270.804 463.526 274.431 457.709C276.709 453.876 276.468 455.385 277.841 452.081Z" fill="#AD7B40"/>
<path d="M478.586 437.883C478.586 437.883 477.379 439.648 475.176 442.817C474.074 444.416 472.716 446.362 471.087 448.565C469.457 450.768 467.662 453.348 465.55 456.109C461.4 461.646 456.286 468.104 450.462 475.15C448.953 476.915 447.444 478.666 445.935 480.491C444.426 482.317 442.767 484.158 441.107 486.013C437.818 489.755 434.287 493.557 430.697 497.39C427.106 501.222 423.454 504.934 419.894 508.389C418.143 510.159 416.398 511.864 414.658 513.504C412.908 515.148 411.233 516.793 409.558 518.347C402.844 524.578 396.673 530.025 391.362 534.461C388.737 536.724 386.278 538.67 384.15 540.405C382.023 542.141 380.167 543.619 378.628 544.796C375.61 547.18 373.875 548.477 373.875 548.477L378.583 544.736C380.092 543.529 381.947 542.065 384.06 540.3C386.172 538.535 388.586 536.588 391.226 534.265C396.522 529.738 402.678 524.322 409.332 518.09C411.007 516.582 412.682 514.892 414.417 513.247C416.152 511.603 417.902 509.898 419.652 508.117C423.213 504.647 426.774 500.92 430.44 497.118C434.106 493.316 437.546 489.574 440.836 485.757C442.505 483.916 444.12 482.081 445.679 480.25C447.188 478.424 448.772 476.674 450.205 474.909C456.074 467.893 461.204 461.435 465.369 455.928C467.496 453.197 469.322 450.647 470.951 448.384C472.581 446.121 473.969 444.25 475.085 442.666C477.333 439.618 478.586 437.883 478.586 437.883Z" fill="white"/>
<path d="M454.913 515.797C454.913 515.797 454.022 516.491 452.348 517.623C449.964 519.21 447.496 520.665 444.955 521.983C441.741 523.658 437.803 525.469 433.382 527.279C428.961 529.09 424.043 531.021 418.898 533.058L392.554 543.393L384.558 546.501C382.672 547.225 381.615 547.603 381.615 547.603L384.527 546.411L392.479 543.227L418.792 532.786C423.937 530.749 428.841 528.848 433.276 527.038C437.712 525.227 441.635 523.462 444.864 521.802C447.409 520.512 449.887 519.092 452.287 517.547C453.147 517.004 453.796 516.552 454.234 516.25L454.913 515.797Z" fill="white"/>
<path d="M357.927 503.334C357.927 503.334 357.807 503.938 357.55 505.039C357.294 506.141 356.947 507.725 356.539 509.701C355.488 514.836 354.757 520.031 354.352 525.257C354.352 526.766 354.186 528.275 354.171 529.783C354.155 531.292 354.171 532.62 354.171 533.963C354.258 536.317 354.475 538.664 354.819 540.994C354.94 541.99 355.121 542.88 355.257 543.664C355.393 544.449 355.544 545.173 355.679 545.671C355.936 546.772 356.057 547.376 356.057 547.376C356.057 547.376 355.875 546.788 355.604 545.686C355.42 545.03 355.269 544.366 355.151 543.695C354.985 542.91 354.789 542.02 354.653 541.009C354.287 538.675 354.046 536.323 353.929 533.963C353.929 532.635 353.824 531.232 353.929 529.783C354.035 528.335 354.005 526.766 354.095 525.257C354.482 520.018 355.249 514.814 356.388 509.686C356.811 507.71 357.203 506.126 357.49 505.039C357.777 503.953 357.927 503.334 357.927 503.334Z" fill="white"/>
<path d="M358.44 467.712C358.44 467.712 357.369 468.692 355.423 470.412C353.476 472.133 350.655 474.652 347.23 477.836C343.805 481.019 339.761 484.837 335.416 489.212C333.243 491.415 330.995 493.738 328.702 496.198C326.409 498.657 324.085 501.237 321.777 503.938C319.468 506.639 317.25 509.339 315.153 511.965C313.056 514.59 311.14 517.185 309.329 519.69C305.738 524.714 302.66 529.346 299.96 533.163C297.259 536.98 294.98 539.998 293.336 542.035C291.691 544.072 290.726 545.128 290.726 545.128L291.39 544.313L293.276 541.975C294.89 539.923 297.153 536.905 299.809 533.058C302.464 529.21 305.542 524.578 309.118 519.478C310.913 516.974 312.86 514.379 314.927 511.723C316.994 509.068 319.212 506.382 321.55 503.696C329.532 494.504 338.062 485.803 347.094 477.64C353.989 471.393 358.44 467.712 358.44 467.712Z" fill="white"/>
<path d="M202.295 495.489C202.295 495.489 202.114 496.032 201.752 496.998C201.39 497.963 200.892 499.382 200.334 501.147C199.776 502.912 199.187 505.024 198.629 507.408C198.373 508.6 198.086 509.853 197.875 511.165C197.663 512.478 197.437 513.836 197.241 515.239C197.045 516.642 196.924 518 196.834 519.328C196.743 520.655 196.683 521.938 196.622 523.16C196.622 525.604 196.622 527.807 196.698 529.648C196.773 531.489 196.924 532.982 197.03 534.023C197.135 535.064 197.196 535.623 197.196 535.623C197.196 535.623 197.09 535.049 196.954 534.023C196.818 532.997 196.653 531.504 196.532 529.663C196.411 527.822 196.336 525.604 196.381 523.145C196.381 521.923 196.381 520.64 196.562 519.313C196.743 517.985 196.803 516.612 196.954 515.194C197.105 513.775 197.347 512.433 197.603 511.12C197.86 509.807 198.116 508.555 198.388 507.348C198.961 504.964 199.58 502.822 200.168 501.086C200.756 499.351 201.269 497.933 201.677 496.967L202.295 495.489Z" fill="white"/>
<path d="M222.453 518.513C222.453 518.513 222.196 518.92 221.714 519.629L219.662 522.647L212.797 532.544L205.856 542.382L203.729 545.399L202.929 546.486C202.929 546.486 203.171 546.078 203.653 545.354L205.72 542.337L212.57 532.439L219.526 522.602L221.653 519.584C222.151 518.89 222.453 518.513 222.453 518.513Z" fill="white"/>
<path d="M40.7036 407.209C40.7036 407.209 40.7036 407.677 40.4773 408.567C40.251 409.457 40.085 410.785 39.8285 412.49C39.572 414.195 39.225 416.277 38.9383 418.706C38.7573 419.913 38.6215 421.211 38.4857 422.599C38.3499 423.987 38.1839 425.435 38.0783 426.974C37.9727 428.513 37.852 430.128 37.7766 431.802C37.7011 433.477 37.6559 435.227 37.6257 437.038C37.5955 438.848 37.6257 440.734 37.6257 442.651C37.6257 444.567 37.7615 446.573 37.9576 448.595C38.2895 452.861 38.8739 457.103 39.7078 461.299C40.5719 465.791 41.762 470.213 43.2686 474.531C44.7669 478.844 46.6033 483.031 48.7606 487.054C50.7347 490.83 52.9261 494.487 55.3238 498.008C57.6323 501.358 59.8502 504.481 62.219 507.287C64.5878 510.094 66.7454 512.674 68.7521 514.967C72.8862 519.493 76.3866 523.099 78.8308 525.529L81.6674 528.32L82.6481 529.301C82.6481 529.301 81.2449 527.988 78.7856 525.589C76.3262 523.19 72.7504 519.644 68.6163 515.027C66.5492 512.734 64.3162 510.199 62.038 507.378C59.7597 504.556 57.5116 501.448 55.1126 498.099C52.6996 494.573 50.493 490.911 48.5041 487.13C46.3527 483.08 44.5214 478.867 43.0272 474.531C41.5175 470.197 40.3224 465.76 39.4513 461.254C38.6535 457.059 38.0943 452.823 37.7766 448.565C37.5804 446.528 37.5653 444.537 37.4597 442.53C37.3541 440.523 37.4597 438.713 37.4597 436.902C37.4597 435.092 37.4597 433.341 37.6408 431.652C37.8218 429.962 37.8369 428.362 37.9727 426.823C38.1085 425.284 38.2443 423.806 38.3952 422.448C38.5461 421.09 38.6969 419.762 38.878 418.555C39.1797 416.111 39.5419 414.029 39.8134 412.339C40.085 410.649 40.3566 409.321 40.5226 408.431C40.6885 407.541 40.7036 407.209 40.7036 407.209Z" fill="white"/>
<path d="M8.65692 470.925L9.00394 472.087C9.24535 472.842 9.54711 473.973 10.045 475.406C10.5429 476.84 11.1313 478.59 11.8857 480.597C12.6401 482.603 13.6208 484.852 14.7675 487.296C17.4656 493.02 20.6667 498.493 24.3333 503.651C28.8389 509.95 34.0309 515.729 39.8135 520.881C50.3924 530.223 62.7432 537.34 76.1301 541.808C80.1639 543.2 84.3076 544.25 88.5173 544.947C90.0261 545.173 91.1879 545.279 91.9725 545.339L93.1946 545.414C91.6282 545.395 90.0651 545.264 88.5173 545.022C87.0085 544.811 85.1829 544.479 83.1008 543.981C81.0186 543.483 78.5744 542.789 76.0849 541.974C70.0553 539.991 64.2176 537.466 58.6432 534.43C51.8343 530.685 45.4545 526.208 39.6173 521.078C29.0426 511.673 20.5214 500.188 14.5865 487.341C13.4398 484.882 12.5345 482.618 11.765 480.612C10.9955 478.605 10.4071 476.855 9.95448 475.406C9.04921 472.555 8.65692 470.925 8.65692 470.925Z" fill="white"/>
<path d="M81.954 469.975C81.954 469.975 81.954 471.167 82.1049 473.324C82.1274 474.636 82.218 475.945 82.3765 477.247C82.5425 478.756 82.6481 480.521 83.0102 482.423C83.1611 483.373 83.327 484.369 83.493 485.44C83.659 486.511 83.9607 487.537 84.1871 488.654C84.6397 490.887 85.3639 493.18 86.058 495.655C86.4201 496.877 86.918 498.084 87.3404 499.351L88.0194 501.252L88.8191 503.153C89.845 505.748 91.1426 508.313 92.4401 510.954C93.7377 513.594 95.2767 516.038 96.8307 518.332L97.9623 520.067C98.3546 520.625 98.762 521.168 99.1543 521.712C99.9539 522.768 100.663 523.854 101.493 524.85C103.077 526.781 104.586 528.682 106.095 530.312C106.879 531.126 107.604 531.956 108.358 532.696L110.621 534.778C111.994 536.151 113.367 537.222 114.529 538.218C115.132 538.716 115.66 539.183 116.173 539.591L117.682 540.662L120.368 542.669C120.368 542.669 119.387 541.99 117.637 540.722C116.556 539.977 115.513 539.176 114.514 538.323C113.337 537.327 111.949 536.271 110.561 534.913L108.343 532.831C107.588 532.107 106.834 531.322 106.065 530.462C104.465 528.833 102.941 526.932 101.312 524.97C100.497 523.99 99.8031 522.903 98.9431 521.832L97.6757 520.142L96.5441 518.407C95.0353 516.114 93.5265 513.579 92.1233 511.014C90.7201 508.449 89.5131 505.794 88.5022 503.199L87.7025 501.282L87.0236 499.366C86.6011 498.099 86.1183 496.877 85.7562 495.655C85.0621 493.18 84.353 490.857 83.9155 488.624C83.6892 487.507 83.4176 486.451 83.2365 485.395C83.0555 484.339 82.9197 483.358 82.7688 482.377C82.4218 480.461 82.3463 478.711 82.1804 477.187C82.1804 476.418 82.0295 475.678 81.9993 475.06V473.249C81.954 471.167 81.954 469.975 81.954 469.975Z" fill="white"/>
<path d="M185.699 502.746C185.699 502.746 185.337 503.349 184.643 504.405C183.948 505.461 182.938 507 181.731 508.932C179.317 512.764 176.103 518.135 172.844 524.231C169.585 530.326 166.914 535.999 165.073 540.133C164.168 542.216 163.429 543.89 162.946 545.067C162.463 546.244 162.162 546.863 162.162 546.863C162.162 546.863 163.127 544.237 164.908 540.073C166.688 535.909 169.328 530.206 172.587 524.095C175.846 517.984 179.105 512.643 181.64 508.841C182.877 506.94 183.903 505.416 184.658 504.315L185.699 502.746Z" fill="white"/>
<path d="M117.109 466.248C117.109 466.248 117.109 467.379 117.003 469.431C117.003 470.457 116.898 471.725 116.898 473.188C116.898 474.652 116.898 476.312 116.898 478.152C116.898 481.819 117.169 486.209 117.607 491.052C117.879 493.466 118.105 496.001 118.527 498.596C118.95 501.192 119.372 503.922 119.87 506.683C120.368 509.445 121.002 512.115 121.651 514.68C122.299 517.245 122.993 519.689 123.657 522.043C125.06 526.69 126.494 530.839 127.837 534.264C128.47 535.984 129.134 537.508 129.692 538.866C130.251 540.224 130.749 541.371 131.201 542.306C132.046 544.177 132.499 545.218 132.499 545.218L131.111 542.336C130.673 541.416 130.145 540.269 129.602 538.911C129.059 537.553 128.35 536.045 127.701 534.385C126.328 530.975 124.879 526.841 123.446 522.179C122.782 519.825 122.028 517.381 121.424 514.801C120.821 512.221 120.202 509.55 119.629 506.804C119.055 504.058 118.633 501.327 118.286 498.702C117.939 496.077 117.652 493.542 117.396 491.158C116.973 486.315 116.762 481.924 116.762 478.243C116.762 476.402 116.762 474.727 116.762 473.279C116.762 471.83 116.762 470.548 116.898 469.522C117.019 467.334 117.109 466.248 117.109 466.248Z" fill="white"/>
<path d="M221.729 105.813C221.729 105.813 221.367 106.19 220.673 106.824L217.745 109.494L208.195 118.396L198.735 127.449L195.883 130.18C195.219 130.829 194.827 131.176 194.827 131.176C194.827 131.176 195.174 130.798 195.838 130.135L198.629 127.328C200.998 124.975 204.317 121.761 208.014 118.276C211.71 114.79 215.135 111.667 217.625 109.434L220.642 106.824C221.321 106.145 221.729 105.813 221.729 105.813Z" fill="#EDEBFF"/>
<path d="M225.833 107.276L224.973 108.136L222.574 110.399L214.637 117.838L206.641 125.2L204.166 127.418L203.246 128.203L204.106 127.358L206.49 125.08L214.426 117.657L222.423 110.294L224.867 108.076L225.833 107.276Z" fill="#EDEBFF"/>
<path d="M222.875 116.193L222.061 117.008L219.782 119.166L212.238 126.272L204.619 133.303L202.28 135.415C201.737 135.913 201.405 136.185 201.405 136.185C201.405 136.185 201.692 135.883 202.235 135.37L204.498 133.197L212.042 126.091L219.662 119.06L221.985 116.948C222.558 116.45 222.875 116.193 222.875 116.193Z" fill="#EDEBFF"/>
<path d="M227.175 117.853C227.175 117.853 226.949 118.079 226.512 118.457L224.656 119.965C223.147 121.308 220.944 123.164 218.621 125.246L213.083 130.24C212.359 130.904 211.756 131.462 211.288 131.87C210.82 132.277 210.473 132.549 210.549 132.715C210.56 132.73 210.574 132.743 210.592 132.752C210.609 132.761 210.627 132.765 210.647 132.765C210.666 132.765 210.685 132.761 210.702 132.752C210.719 132.743 210.734 132.73 210.745 132.715C210.733 132.737 210.716 132.755 210.695 132.768C210.673 132.781 210.649 132.788 210.624 132.788C210.599 132.788 210.575 132.781 210.553 132.768C210.532 132.755 210.515 132.737 210.503 132.715C210.503 132.715 210.503 132.473 210.669 132.353L211.212 131.809L212.963 130.12C214.471 128.762 216.312 126.981 218.455 125.08C220.597 123.179 222.981 121.157 224.58 119.86L226.466 118.351C226.904 118.034 227.175 117.853 227.175 117.853Z" fill="#EDEBFF"/>
<path d="M211.243 109.328L210.413 110.127L208.104 112.255C206.158 114.065 203.487 116.585 200.56 119.376C197.633 122.168 195.023 124.763 193.137 126.634L190.919 128.852C190.391 129.365 190.074 129.636 190.074 129.636L190.859 128.791L193.031 126.513C194.872 124.612 197.467 121.987 200.379 119.195C203.291 116.404 206.022 113.915 207.923 112.149L210.277 110.067C210.911 109.584 211.243 109.328 211.243 109.328Z" fill="#EDEBFF"/>
<path d="M211.212 105.511C211.212 105.511 210.971 105.737 210.503 106.114L208.512 107.623C206.837 108.966 204.513 110.822 201.994 112.904C199.474 114.986 197.211 116.917 195.581 118.305L193.65 119.965L192.926 120.554C192.926 120.554 193.152 120.312 193.59 119.905L195.476 118.2C197.075 116.691 199.308 114.82 201.843 112.723C204.378 110.626 206.701 108.8 208.421 107.502L210.458 105.994L211.212 105.511Z" fill="#EDEBFF"/>
<path d="M206.641 102.599C206.641 102.599 206.354 102.855 205.796 103.293L203.502 105.224C201.556 106.823 198.976 109.056 196.064 111.621C193.152 114.186 190.723 116.6 188.943 118.366L186.83 120.463L186.046 121.217L186.77 120.402L188.822 118.245C190.572 116.434 193.046 114.005 195.898 111.44C198.75 108.875 201.42 106.657 203.442 105.088L205.796 103.278C206.309 102.81 206.641 102.599 206.641 102.599Z" fill="#EDEBFF"/>
<path d="M195.898 106.733C195.898 106.733 195.792 106.854 195.596 107.05L194.691 107.85L191.673 110.414L188.656 112.934L187.705 113.673C187.479 113.855 187.358 113.945 187.343 113.93C187.439 113.815 187.545 113.709 187.66 113.613L188.55 112.813L191.568 110.249L194.585 107.729L195.521 106.99L195.898 106.733Z" fill="#EDEBFF"/>
<path d="M230.797 119.814L230.238 120.342L228.73 121.73C227.417 122.892 225.621 124.537 223.675 126.377C221.729 128.218 219.994 129.923 218.741 131.175L217.233 132.684C216.886 133.031 216.674 133.212 216.674 133.212C216.674 133.212 216.84 132.986 217.172 132.624L218.575 131.115C219.782 129.833 221.502 128.097 223.449 126.257C225.395 124.416 227.236 122.802 228.579 121.73L230.193 120.403L230.797 119.814Z" fill="#EDEBFF"/>
<path d="M278.791 105.375C278.791 105.375 279.199 105.692 279.908 106.311L282.925 108.936C285.415 111.154 288.825 114.262 292.536 117.762C296.248 121.263 299.552 124.492 301.921 126.815L304.712 129.622C305.376 130.285 305.723 130.663 305.723 130.663C305.723 130.663 305.331 130.331 304.667 129.682L301.815 126.936L292.355 117.883L282.805 108.981L279.908 106.296L278.791 105.375Z" fill="#EDEBFF"/>
<path d="M274.702 106.838C274.702 106.838 275.034 107.11 275.608 107.623L278.052 109.841L286.048 117.204L293.985 124.642L296.369 126.905L297.229 127.765L296.308 126.966L293.879 124.748L285.882 117.385L277.946 109.962L275.547 107.683C274.989 107.155 274.702 106.838 274.702 106.838Z" fill="#EDEBFF"/>
<path d="M277.645 115.786C277.645 115.786 277.962 116.042 278.52 116.54L280.843 118.653L288.463 125.699L296.007 132.79L298.27 134.963C298.813 135.476 299.1 135.777 299.1 135.777C299.1 135.777 298.783 135.521 298.225 135.023L295.886 132.911L288.267 125.88L280.723 118.773L278.444 116.601L277.645 115.786Z" fill="#EDEBFF"/>
<path d="M273.344 117.4C273.344 117.4 273.616 117.581 274.069 117.943L275.955 119.452C277.554 120.765 279.727 122.59 282.08 124.672C284.434 126.754 286.516 128.701 288.01 130.119L289.745 131.824C289.941 131.99 290.183 132.262 289.956 132.382C289.73 132.503 289.79 132.231 289.82 132.262C289.851 132.292 289.82 132.382 289.956 132.352C290.092 132.322 289.956 132.05 289.7 131.884L287.904 130.225C286.395 128.837 284.283 126.92 281.869 124.853C279.455 122.786 277.343 120.9 275.834 119.573L273.978 117.988C273.571 117.626 273.344 117.4 273.344 117.4Z" fill="#EDEBFF"/>
<path d="M289.277 108.875C289.277 108.875 289.609 109.132 290.168 109.615L292.521 111.697C294.498 113.477 297.214 115.937 300.141 118.758C303.068 121.579 305.648 124.16 307.488 126.061L309.661 128.339C310.174 128.882 310.446 129.199 310.446 129.199C310.446 129.199 310.129 128.927 309.601 128.399L307.383 126.181C305.497 124.31 302.856 121.745 299.96 118.939C297.063 116.133 294.362 113.613 292.416 111.818L290.168 109.751C289.564 109.177 289.277 108.875 289.277 108.875Z" fill="#EDEBFF"/>
<path d="M289.308 105.073L290.062 105.601L292.099 107.11C293.819 108.408 296.158 110.233 298.677 112.315C301.197 114.398 303.445 116.359 305.044 117.792C305.844 118.517 306.478 119.105 306.93 119.497L307.594 120.161L306.885 119.558L304.939 117.913C303.309 116.51 301.061 114.594 298.526 112.512C295.992 110.429 293.698 108.559 292.008 107.216C291.179 106.552 290.5 106.009 290.017 105.707C289.534 105.405 289.308 105.073 289.308 105.073Z" fill="#EDEBFF"/>
<path d="M293.879 102.207C293.879 102.207 294.211 102.418 294.769 102.84L297.123 104.666C299.1 106.175 301.785 108.438 304.667 111.003C307.549 113.568 309.993 116.012 311.743 117.808C312.603 118.728 313.252 119.467 313.795 119.965L314.519 120.78C314.519 120.78 314.233 120.523 313.735 120.026L311.623 117.928C309.842 116.163 307.338 113.764 304.501 111.199C301.665 108.634 299.009 106.386 297.063 104.787L294.694 102.856L293.879 102.207Z" fill="#EDEBFF"/>
<path d="M304.622 106.22C304.753 106.29 304.875 106.376 304.984 106.477L305.919 107.216L308.937 109.721L311.955 112.301L312.845 113.1C312.957 113.194 313.063 113.295 313.162 113.402C313.162 113.402 313.026 113.402 312.8 113.161L311.849 112.421L308.831 109.902L305.814 107.322L304.909 106.522C304.804 106.431 304.708 106.33 304.622 106.22Z" fill="#EDEBFF"/>
<path d="M269.723 119.377L270.342 119.829L271.956 121.157C273.299 122.304 275.125 123.903 277.086 125.683C279.048 127.464 280.753 129.274 281.96 130.557L283.363 132.066L283.861 132.654C283.861 132.654 283.65 132.473 283.303 132.126L281.794 130.617C280.541 129.38 278.776 127.6 276.86 125.819C274.944 124.039 273.118 122.349 271.806 121.172L270.297 119.799C269.92 119.573 269.723 119.377 269.723 119.377Z" fill="#EDEBFF"/>
<path d="M242.806 449.425C242.806 449.425 242.806 449.561 242.625 449.772L242.067 450.662L240.241 453.68L238.476 456.697L237.948 457.618C237.893 457.733 237.822 457.84 237.737 457.935C237.772 457.808 237.823 457.687 237.888 457.573L238.34 456.622C238.748 455.822 239.336 454.736 240.03 453.604C240.724 452.473 241.418 451.402 241.931 450.677L242.565 449.817L242.806 449.425Z" fill="#9D93E2"/>
<path d="M243.651 451.492C243.529 451.781 243.383 452.058 243.214 452.322L242.143 454.299L241.102 456.29C240.976 456.578 240.819 456.851 240.634 457.105C240.719 456.804 240.83 456.511 240.966 456.23C241.192 455.702 241.524 454.963 241.931 454.193C242.339 453.424 242.776 452.684 243.093 452.247C243.245 451.972 243.433 451.718 243.651 451.492Z" fill="#9D93E2"/>
<path d="M241.464 447.494C241.341 447.826 241.184 448.145 240.996 448.445C240.679 449.003 240.257 449.787 239.744 450.617C239.231 451.447 238.778 452.217 238.431 452.76C238.084 453.303 237.858 453.635 237.843 453.635C237.96 453.305 238.117 452.991 238.31 452.699C238.612 452.126 239.05 451.357 239.548 450.512C240.045 449.667 240.528 448.897 240.875 448.354C241.043 448.049 241.24 447.761 241.464 447.494Z" fill="#9D93E2"/>
<path d="M258.347 450.375C258.347 450.375 258.453 450.466 258.604 450.662L259.222 451.522C259.735 452.246 260.429 453.272 261.123 454.449C261.817 455.626 262.406 456.697 262.813 457.467L263.281 458.417C263.347 458.529 263.392 458.652 263.417 458.779L263.205 458.463L262.677 457.542L260.912 454.525L259.086 451.507L258.483 450.738C258.426 450.622 258.38 450.5 258.347 450.375Z" fill="#9D93E2"/>
<path d="M257.517 452.428C257.73 452.658 257.917 452.911 258.075 453.182C258.392 453.665 258.8 454.344 259.222 455.129C259.645 455.913 259.976 456.637 260.203 457.166C260.345 457.443 260.451 457.737 260.52 458.041C260.337 457.788 260.185 457.515 260.067 457.226C259.795 456.713 259.418 456.019 259.011 455.234L257.94 453.258C257.763 453.001 257.621 452.722 257.517 452.428Z" fill="#9D93E2"/>
<path d="M259.69 448.445C259.92 448.704 260.122 448.987 260.293 449.289C260.64 449.848 261.108 450.602 261.606 451.447C262.104 452.292 262.541 453.061 262.858 453.635C263.037 453.935 263.193 454.247 263.326 454.57C263.098 454.303 262.896 454.015 262.723 453.71C262.376 453.167 261.908 452.413 261.41 451.568C260.912 450.723 260.474 449.938 260.158 449.38C259.983 449.078 259.827 448.766 259.69 448.445Z" fill="#9D93E2"/>
<path d="M126.66 246.794L136.618 253.78C137.33 254.281 138.17 254.571 139.04 254.616C139.91 254.661 140.775 254.46 141.536 254.036L149.895 249.344C154.852 246.578 160.349 244.92 166.009 244.486C178.804 243.55 202.039 243.233 215.105 251.562C215.559 251.845 216.103 251.95 216.63 251.855C217.157 251.76 217.63 251.473 217.957 251.049V251.049C218.27 250.66 218.441 250.175 218.441 249.676C218.441 249.176 218.27 248.692 217.957 248.303C214.381 244.033 201.149 231.555 166.658 228.824C154.383 227.735 142.124 231.069 132.091 238.224C129.97 239.735 128.026 241.481 126.298 243.429C126.089 243.669 125.933 243.949 125.837 244.252C125.742 244.555 125.711 244.875 125.745 245.191C125.779 245.506 125.878 245.812 126.035 246.088C126.192 246.364 126.405 246.604 126.66 246.794V246.794Z" stroke="black" stroke-width="1.50879" stroke-linecap="round" stroke-linejoin="round"/>
<path d="M144.297 260.222C150.598 264.159 157.73 266.571 165.127 267.268C172.524 267.964 179.981 266.926 186.906 264.236C211.499 255.183 219.586 260.66 219.586 260.66C219.586 260.66 171.576 301.684 144.297 260.222Z" stroke="black" stroke-width="1.50879" stroke-linecap="round" stroke-linejoin="round"/>
<path d="M178.124 378.014C182.663 376.151 186.836 373.5 190.451 370.183C208.195 354.145 216.991 356.755 216.991 356.755C212.787 364.713 207.297 371.922 200.741 378.089" stroke="black" stroke-width="1.50879" stroke-linecap="round" stroke-linejoin="round"/>
<path d="M136.738 350.192C136.738 350.192 158.948 359.033 184.28 344.745C209.613 330.457 219.511 334.048 219.511 334.048C219.511 334.048 174.368 384.939 136.738 350.192Z" stroke="black" stroke-width="1.50879" stroke-linecap="round" stroke-linejoin="round"/>
<path d="M145.867 298.349C145.867 298.349 188.49 324.814 218.424 279.037C218.424 279.037 200.319 290.956 183.994 290.67C167.669 290.383 145.867 298.349 145.867 298.349Z" stroke="black" stroke-width="1.50879" stroke-linecap="round" stroke-linejoin="round"/>
<path d="M140.39 328.948C140.296 328.653 140.265 328.341 140.297 328.034C140.33 327.726 140.426 327.428 140.579 327.159C140.732 326.89 140.938 326.655 141.186 326.47C141.434 326.284 141.718 326.152 142.019 326.081C151.796 323.697 197.995 312.502 217.459 310.676C217.842 310.641 218.228 310.698 218.585 310.842C218.942 310.987 219.26 311.214 219.511 311.506V311.506C219.78 311.816 219.968 312.188 220.056 312.589C220.143 312.99 220.129 313.407 220.013 313.801C219.897 314.195 219.684 314.553 219.393 314.843C219.102 315.133 218.743 315.345 218.349 315.459C209.296 318.024 186.091 325.236 172.346 334.726C157.122 345.228 142.668 335.421 140.39 328.948Z" stroke="black" stroke-width="1.50879" stroke-linecap="round" stroke-linejoin="round"/>
<path d="M92.591 363.847C92.591 363.847 68.6616 331.785 119.674 270.015C119.674 270.015 132.272 255.078 141.219 266.348C147.541 274.33 127.037 306.905 113.08 327.379C106.004 337.759 100.467 342.226 92.6061 363.847H92.591Z" stroke="black" stroke-width="1.50879" stroke-linecap="round" stroke-linejoin="round"/>
<path d="M116.656 448.776C113.02 446.981 107.317 440.795 98.943 423.368C81.8182 387.821 90.5994 366.034 90.5994 366.034C90.5994 366.034 94.3563 389.103 108.811 405.972C111.962 409.648 114.601 413.734 116.656 418.118" stroke="black" stroke-width="1.50879" stroke-linecap="round" stroke-linejoin="round"/>
<path d="M240.468 235.146C240.468 235.146 226.074 241.951 225.908 249.359C225.742 256.767 234.01 263.18 250.29 259.921" stroke="black" stroke-width="1.50879" stroke-linecap="round" stroke-linejoin="round"/>
<path d="M234.342 259.664C234.342 259.664 226.179 265.82 227.824 271.086C228.82 274.284 231.747 276.759 236.771 277.619" stroke="black" stroke-width="1.50879" stroke-linecap="round" stroke-linejoin="round"/>
<path d="M236.575 363.077C236.575 363.077 228.413 369.233 230.057 374.498C230.478 375.843 231.243 377.055 232.275 378.014" stroke="black" stroke-width="1.50879" stroke-linecap="round" stroke-linejoin="round"/>
<path d="M233.935 276.864C233.935 276.864 226.18 282.779 225.908 289.131C225.727 293.189 234.252 293.431 240.468 293.069" stroke="black" stroke-width="1.50879" stroke-linecap="round" stroke-linejoin="round"/>
<path d="M234.523 293.19C234.523 293.19 224.867 302.243 231.672 308.006C238.476 313.77 248.012 309.772 248.012 309.772" stroke="black" stroke-width="1.50879" stroke-linecap="round" stroke-linejoin="round"/>
<path d="M235.489 310.662C235.489 310.662 227.311 316.818 228.956 322.083C230.6 327.349 236.5 331.136 249.385 328.586" stroke="black" stroke-width="1.50879" stroke-linecap="round" stroke-linejoin="round"/>
<path d="M237.194 328.948C237.194 328.948 229.424 334.862 229.152 341.214C228.88 347.566 250.064 344.549 250.064 344.549" stroke="black" stroke-width="1.50879" stroke-linecap="round" stroke-linejoin="round"/>
<path d="M235.595 345.273C235.595 345.273 225.938 354.326 232.743 360.09C239.548 365.853 249.098 361.855 249.098 361.855" stroke="black" stroke-width="1.50879" stroke-linecap="round" stroke-linejoin="round"/>
<path d="M375.233 247.05L365.26 254.036C364.553 254.544 363.714 254.837 362.844 254.879C361.974 254.922 361.111 254.713 360.357 254.278L351.983 249.6C347.039 246.817 341.542 245.158 335.884 244.742C323.089 243.807 299.854 243.49 286.788 251.818C286.332 252.095 285.79 252.196 285.265 252.101C284.74 252.007 284.267 251.724 283.936 251.305V251.305C283.621 250.914 283.45 250.427 283.45 249.925C283.45 249.423 283.621 248.935 283.936 248.544C287.512 244.289 300.744 231.812 335.235 229.081C347.51 227.991 359.769 231.325 369.802 238.48C371.927 239.987 373.871 241.733 375.595 243.686C375.804 243.926 375.96 244.206 376.055 244.509C376.151 244.812 376.182 245.131 376.148 245.447C376.114 245.763 376.015 246.068 375.858 246.344C375.701 246.62 375.488 246.86 375.233 247.05V247.05Z" stroke="black" stroke-width="1.50879" stroke-linecap="round" stroke-linejoin="round"/>
<path d="M357.595 260.54C351.292 264.477 344.157 266.889 336.757 267.583C329.357 268.277 321.898 267.234 314.972 264.538C290.394 255.485 282.307 260.977 282.307 260.977C282.307 260.977 330.316 302.001 357.595 260.54Z" stroke="black" stroke-width="1.50879" stroke-linecap="round" stroke-linejoin="round"/>
<path d="M323.195 378.089C318.882 376.244 314.905 373.694 311.426 370.545C293.683 354.492 284.902 357.117 284.902 357.117C289.017 364.904 294.361 371.975 300.729 378.059" stroke="black" stroke-width="1.50879" stroke-linecap="round" stroke-linejoin="round"/>
<path d="M365.154 350.493C365.154 350.493 342.975 359.35 317.612 345.122C292.25 330.894 282.382 334.425 282.382 334.425C282.382 334.425 327.525 385.256 365.154 350.493Z" stroke="black" stroke-width="1.50879" stroke-linecap="round" stroke-linejoin="round"/>
<path d="M356.011 298.636C356.011 298.636 313.403 325.1 283.469 279.309C283.469 279.309 301.574 291.243 317.899 290.956C334.224 290.67 356.011 298.636 356.011 298.636Z" stroke="black" stroke-width="1.50879" stroke-linecap="round" stroke-linejoin="round"/>
<path d="M361.503 329.25C361.597 328.955 361.628 328.645 361.595 328.338C361.563 328.031 361.467 327.735 361.314 327.467C361.16 327.199 360.953 326.965 360.706 326.781C360.458 326.597 360.175 326.467 359.874 326.398C350.082 323.999 303.898 312.819 284.434 310.993C284.051 310.958 283.664 311.015 283.307 311.159C282.951 311.303 282.633 311.531 282.382 311.823V311.823C282.113 312.133 281.925 312.505 281.837 312.906C281.75 313.307 281.764 313.724 281.88 314.118C281.996 314.512 282.209 314.87 282.5 315.16C282.791 315.45 283.15 315.662 283.544 315.776C292.597 318.341 315.802 325.553 329.547 335.043C344.756 345.545 359.225 335.722 361.503 329.25Z" stroke="black" stroke-width="1.50879" stroke-linecap="round" stroke-linejoin="round"/>
<path d="M409.362 364.163C409.362 364.163 433.292 332.101 382.294 270.331C382.294 270.331 369.696 255.379 360.749 266.665C354.412 274.631 374.931 307.221 388.888 327.696C395.964 338.076 401.501 342.542 409.362 364.163Z" stroke="black" stroke-width="1.50879" stroke-linecap="round" stroke-linejoin="round"/>
<path d="M385.372 449.048C389.009 447.207 394.682 440.976 402.995 423.685C420.12 388.138 411.339 366.351 411.339 366.351C411.339 366.351 407.582 389.42 393.128 406.289C389.976 409.965 387.337 414.05 385.282 418.434" stroke="black" stroke-width="1.50879" stroke-linecap="round" stroke-linejoin="round"/>
<path d="M262.572 235.87C262.572 235.87 275.819 242.268 275.985 249.676C276.106 254.896 272.017 259.634 263.915 260.811" stroke="black" stroke-width="1.50879" stroke-linecap="round" stroke-linejoin="round"/>
<path d="M267.536 259.981C267.536 259.981 275.698 266.137 274.054 271.402C272.409 276.668 265.574 279.957 252.734 277.332" stroke="black" stroke-width="1.50879" stroke-linecap="round" stroke-linejoin="round"/>
<path d="M265.318 363.394C265.318 363.394 273.48 369.55 271.836 374.815C271.448 376.049 270.77 377.171 269.859 378.089" stroke="black" stroke-width="1.50879" stroke-linecap="round" stroke-linejoin="round"/>
<path d="M267.958 277.227C267.958 277.227 275.713 283.126 275.985 289.493C276.256 295.86 255.073 292.828 255.073 292.828" stroke="black" stroke-width="1.50879" stroke-linecap="round" stroke-linejoin="round"/>
<path d="M267.37 293.507C267.37 293.507 277.026 302.559 270.221 308.323C268.546 309.752 266.529 310.724 264.367 311.144" stroke="black" stroke-width="1.50879" stroke-linecap="round" stroke-linejoin="round"/>
<path d="M266.404 310.979C266.404 310.979 274.582 317.134 272.922 322.4C271.579 326.715 266.751 329.703 258.015 329.19" stroke="black" stroke-width="1.50879" stroke-linecap="round" stroke-linejoin="round"/>
<path d="M264.699 329.265C264.699 329.265 272.454 335.164 272.726 341.531C272.862 344.549 268.2 345.454 263.22 345.575" stroke="black" stroke-width="1.50879" stroke-linecap="round" stroke-linejoin="round"/>
<path d="M266.283 345.59C266.283 345.59 275.94 354.643 269.15 360.407C267.076 362.136 264.523 363.189 261.832 363.424" stroke="black" stroke-width="1.50879" stroke-linecap="round" stroke-linejoin="round"/>
<path d="M212.646 177.42L210.322 187.257C210.322 187.257 213.596 191.346 220.28 189.385L222.347 180.332" stroke="black" stroke-width="1.50879" stroke-linecap="round" stroke-linejoin="round"/>
<path d="M228.609 207.369L229.816 200.564C229.816 200.564 226.27 196.732 219.737 199.146L218.952 203.838" stroke="black" stroke-width="1.50879" stroke-linecap="round" stroke-linejoin="round"/>
<path d="M276.588 206.132L274.536 199.131C274.536 199.131 277.72 194.982 284.449 196.793L285.958 201.908" stroke="black" stroke-width="1.50879" stroke-linecap="round" stroke-linejoin="round"/>
<path d="M243.395 210.583L244.391 202.873C244.391 202.873 240.679 199.207 234.267 201.923L233.361 208.697" stroke="black" stroke-width="1.50879" stroke-linecap="round" stroke-linejoin="round"/>
<path d="M257.895 210.84L258.106 203.552C258.106 203.552 254.047 199.796 247.891 203.19L247.635 210.644" stroke="black" stroke-width="1.50879" stroke-linecap="round" stroke-linejoin="round"/>
<path d="M272.454 207.686L271.368 200.489C271.368 200.489 266.706 197.472 261.259 201.998L262.466 210.372" stroke="black" stroke-width="1.50879" stroke-linecap="round" stroke-linejoin="round"/>
<path d="M225.123 181.267L224.052 190.863C224.052 190.863 227.809 194.499 234.191 191.708L235.112 182.942" stroke="black" stroke-width="1.50879" stroke-linecap="round" stroke-linejoin="round"/>
<path d="M238.703 183.575L238.34 193.217C238.34 193.217 242.339 196.566 248.51 193.307L248.781 183.666" stroke="black" stroke-width="1.50879" stroke-linecap="round" stroke-linejoin="round"/>
<path d="M252.87 183.682L253.202 192.523C253.202 192.523 257.457 195.541 263.356 191.859L262.964 183.048" stroke="black" stroke-width="1.50879" stroke-linecap="round" stroke-linejoin="round"/>
<path d="M265.242 182.474L266.842 190.773C266.842 190.773 271.504 193.127 276.784 188.57L275.276 180.694" stroke="black" stroke-width="1.50879" stroke-linecap="round" stroke-linejoin="round"/>
<path d="M278.097 180.181L281.613 189.098C281.613 189.098 286.637 190.607 290.982 185.1L287.965 177.646" stroke="black" stroke-width="1.50879" stroke-linecap="round" stroke-linejoin="round"/>
<path d="M218.274 203.552C210.581 199.929 204.286 193.888 200.349 186.352C199.506 184.788 198.272 183.47 196.767 182.526C195.262 181.582 193.539 181.044 191.764 180.965L175.469 180.181L188.475 205.076C189.495 206.992 191.016 208.595 192.876 209.714C194.736 210.833 196.866 211.425 199.036 211.428C202.597 211.428 208.18 213.736 216.599 221.989C218.872 224.236 221.358 226.257 224.022 228.024C232.258 233.606 242.034 236.471 251.98 236.217H252.599C262.545 236.471 272.321 233.606 280.557 228.024C283.22 226.257 285.706 224.236 287.98 221.989C296.399 213.751 301.981 211.428 305.542 211.428C307.713 211.425 309.842 210.833 311.702 209.714C313.563 208.595 315.084 206.992 316.104 205.076L329.11 180.181L311.774 180.558C310.057 180.603 308.379 181.075 306.891 181.931C305.402 182.787 304.151 184 303.249 185.461C299.565 191.002 294.932 195.849 289.564 199.78C278.535 206.615 255.028 219.349 218.274 203.552Z" stroke="black" stroke-width="1.50879" stroke-linecap="round" stroke-linejoin="round"/>
<path d="M294.573 174.538C242.957 194.726 206.007 174.221 206.007 174.221L209.432 172.863C209.432 172.863 155.206 190.245 168.453 138.825C169.268 135.736 170.307 132.711 171.561 129.772C173.99 124.054 178.592 111.048 174.7 102.524L171.908 116.767C171.837 117.117 171.662 117.438 171.406 117.689C171.151 117.939 170.827 118.107 170.475 118.172C170.123 118.237 169.76 118.195 169.432 118.053C169.104 117.91 168.826 117.672 168.634 117.37C162.735 107.789 149.548 80.1481 168.755 47.6487C175.999 35.6191 186.087 25.5524 198.131 18.3329C210.953 10.4988 225.022 4.92098 239.729 1.8418C243.408 1.09663 247.155 0.732597 250.909 0.755471V0.755471C254.668 0.731881 258.419 1.09592 262.104 1.8418C277.295 5.02535 291.802 10.8742 304.954 19.1175C316.181 26.0473 325.632 35.5082 332.55 46.7435C352.556 79.6503 339.173 107.714 333.213 117.385C332.368 118.758 330.196 118.396 329.879 116.42L327.148 102.539C323.301 110.988 327.797 123.843 330.241 129.697C331.532 132.724 332.601 135.84 333.44 139.021C346.551 190.32 292.431 172.924 292.431 172.924L294.573 174.538Z" stroke="black" stroke-width="1.50879" stroke-linecap="round" stroke-linejoin="round"/>
<path d="M187.57 103.896C184.16 111.787 175.846 135.883 198.584 141.209C203.404 142.261 208.399 142.224 213.204 141.103C245.145 134.102 234.418 108 230.646 100.577C230.344 99.9831 229.874 99.4916 229.294 99.1642C228.714 98.8367 228.051 98.6878 227.387 98.7361L191.357 101.211C190.538 101.263 189.751 101.542 189.082 102.016C188.413 102.49 187.89 103.141 187.57 103.896V103.896Z" stroke="black" stroke-width="1.50879" stroke-miterlimit="10"/>
<path d="M313.856 103.896C317.265 111.787 325.579 135.883 302.841 141.209C298.021 142.261 293.026 142.224 288.221 141.103C256.28 134.102 266.992 108 270.779 100.577C271.081 99.9831 271.551 99.4916 272.131 99.1642C272.711 98.8367 273.374 98.6878 274.038 98.7361L310.068 101.211C310.887 101.263 311.674 101.542 312.343 102.016C313.012 102.49 313.535 103.141 313.856 103.896V103.896Z" stroke="black" stroke-width="1.50879" stroke-miterlimit="10"/>
<path d="M251.889 119.497C251.889 119.497 247.454 134.465 239.698 143.849C231.943 153.234 235.579 161.789 235.579 161.789C235.579 161.789 240.679 160.28 246.141 165.742C250.124 169.71 258.649 166.557 262.949 164.58C263.902 164.142 264.731 163.474 265.363 162.637C265.995 161.799 266.409 160.819 266.57 159.782C267.175 154.975 266.11 150.107 263.552 145.992C257.804 135.792 253.73 129.199 251.889 119.497Z" stroke="black" stroke-width="1.50879" stroke-miterlimit="10"/>
<path d="M116.656 461.3V386.705C116.654 385.573 116.876 384.452 117.308 383.406C117.74 382.359 118.375 381.409 119.175 380.609C119.976 379.808 120.926 379.174 121.972 378.741C123.018 378.309 124.14 378.088 125.272 378.09H376.667C378.951 378.09 381.143 378.997 382.758 380.613C384.374 382.229 385.282 384.42 385.282 386.705V480.537" stroke="#7C7C7C" stroke-width="1.50879" stroke-miterlimit="10" stroke-linecap="round"/>
<path d="M259.237 473.943V485.349C264.141 489.498 266.057 484.67 266.057 484.67L266.6 462.838C266.6 462.838 284.163 454.283 280.873 436.057C279.531 428.664 274.34 423.836 268.652 420.713C263.221 417.751 257.133 416.198 250.947 416.198C244.76 416.198 238.672 417.751 233.241 420.713C227.553 423.836 222.362 428.664 221.02 436.057C217.746 454.283 235.278 462.808 235.278 462.808L235.836 484.64C235.836 484.64 239.351 489.8 243.289 485.515L243.184 472.464" stroke="black" stroke-width="0.754396" stroke-linecap="round" stroke-linejoin="round"/>
<path d="M243.289 485.546C243.289 485.546 248.555 490.238 250.939 485.546V473.204" stroke="black" stroke-width="0.754396" stroke-linecap="round" stroke-linejoin="round"/>
<path d="M250.939 485.546C250.939 485.546 255.314 490.495 259.237 485.35" stroke="black" stroke-width="0.754396" stroke-linecap="round" stroke-linejoin="round"/>
<path d="M237.013 442.077C236.753 442.028 236.486 442.033 236.229 442.094C235.972 442.156 235.73 442.27 235.521 442.431C235.311 442.593 235.138 442.796 235.013 443.029C234.888 443.262 234.814 443.519 234.795 443.782C234.433 448.656 234.433 463.789 243.018 461.963C253.247 459.775 248.721 449.048 242.595 444.567C240.965 443.294 239.049 442.44 237.013 442.077V442.077Z" stroke="black" stroke-width="0.754396" stroke-miterlimit="10"/>
<path d="M265.046 442.077C265.305 442.03 265.572 442.038 265.828 442.1C266.084 442.162 266.325 442.277 266.533 442.438C266.742 442.598 266.915 442.801 267.041 443.032C267.167 443.264 267.243 443.52 267.264 443.782C267.611 448.656 267.611 463.789 259.026 461.963C248.796 459.775 253.323 449.048 259.448 444.567C261.084 443.293 263.005 442.439 265.046 442.077Z" stroke="black" stroke-width="0.754396" stroke-miterlimit="10"/>
</svg>
